<svg width="73" height="73" viewBox="0 0 73 73" fill="none" xmlns="http://www.w3.org/2000/svg">
<path d="M36.7823 72.2349C56.6358 72.2349 72.7302 56.1405 72.7302 36.287C72.7302 16.4335 56.6358 0.339111 36.7823 0.339111C16.9289 0.339111 0.834473 16.4335 0.834473 36.287C0.834473 56.1405 16.9289 72.2349 36.7823 72.2349Z" fill="#F3BA2F"/>
<path d="M28.056 32.7013L36.7824 23.9749L45.5132 32.7058L50.5908 27.6281L36.7824 13.8196L22.9784 27.6236L28.056 32.7013ZM14.3149 36.2871L19.3926 31.2094L24.4702 36.2871L19.3926 41.3647L14.3149 36.2871ZM28.056 39.8729L36.7824 48.5992L45.5132 39.8684L50.5908 44.9438L36.7824 58.7545L22.9784 44.9505L22.9716 44.9438L28.056 39.8729ZM49.0945 36.2871L54.1721 31.2094L59.2498 36.2871L54.1721 41.3647L49.0945 36.2871ZM41.9319 36.2826H41.9364V36.2871L36.7824 41.4411L31.6351 36.296L31.6261 36.2871L31.6351 36.2803L32.536 35.3771L32.9741 34.939L36.7824 31.133L41.9341 36.2848L41.9319 36.2826Z" fill="white"/>
<path d="M36.7811 0.441223C35.8243 0.441223 34.8675 0.441223 33.9106 0.577911C52.3635 2.08148 66.9891 17.5272 66.9891 36.3901C66.9891 55.2531 52.5002 70.6988 33.9106 72.2024C34.8675 72.3391 35.8243 72.3391 36.7811 72.3391C56.6008 72.3391 72.73 56.2099 72.73 36.3901C72.73 16.5704 56.6008 0.441223 36.7811 0.441223Z" fill="#ECA907"/>
</svg>
