<svg width="73" height="73" viewBox="0 0 73 73" fill="none" xmlns="http://www.w3.org/2000/svg">
<circle cx="36.7819" cy="36.287" r="35.9479" fill="#E67B57"/>
<path d="M61.2073 29.9015L60.0261 30.0736L46.6149 32.2866C46.5657 32.2866 46.5165 32.3604 46.5411 32.4096C46.6395 32.6063 46.8118 33.0735 46.8118 33.7128C46.8118 36.0241 44.8924 37.8929 42.53 37.8929C40.1923 37.8929 38.2975 36.0487 38.2483 33.7865C38.1991 33.7374 38.1991 33.7374 38.1499 33.6882L12.804 37.9666C12.361 38.1142 12.2134 38.1879 12.2134 38.7781V42.9582C12.2134 43.0074 12.2626 43.0565 12.3118 43.0565C13.9359 43.1303 15.2647 44.5073 15.2647 46.2039C15.2647 47.9006 13.9605 49.3021 12.3118 49.3513C12.2626 49.3513 12.2134 49.4005 12.2134 49.4497V54.5887C12.2134 54.6379 12.2626 54.6871 12.3118 54.6871C14.871 54.2445 33.9666 51.0234 48.1406 48.6382C48.3621 48.5891 48.5835 48.5645 48.805 48.5153C48.8542 48.5153 48.8788 48.4661 48.8788 48.4169C48.805 48.1219 48.7804 47.8022 48.7804 47.4825C48.7804 45.0728 50.7982 43.1057 53.3082 43.1057C55.5967 43.1057 57.4915 44.7532 57.7868 46.917C57.7868 46.9662 57.836 47.0154 57.8852 46.9908C59.3617 46.7449 60.4936 46.5482 61.1827 46.4252C61.2319 46.4252 61.2565 46.376 61.2565 46.3269C61.2565 46.1056 61.2565 45.7367 61.2565 45.245C61.2811 42.1222 61.3549 33.8357 61.3549 30.5162C61.3549 30.3195 61.3303 30.1228 61.2811 29.9261C61.3057 29.9261 61.2565 29.9015 61.2073 29.9015Z" fill="#FFC964"/>
<path d="M14.4268 35.9496L38.5916 31.9416C38.6162 31.9416 38.6408 31.9171 38.6654 31.8925C39.379 30.5647 40.8309 30.245 41.9136 30.0975C42.1105 30.0729 42.3319 30.0483 42.5288 30.0483C43.4885 30.0483 44.4236 30.3188 45.1618 30.8106C45.1864 30.8351 45.211 30.8351 45.2356 30.8351L59.7542 28.4254L60.3448 28.3271C60.3694 28.2287 60.3694 28.2533 60.394 28.1796C58.9421 26.655 57.4164 25.3518 55.8908 24.2207C55.8662 24.1961 55.8169 24.1961 55.7923 24.2207C55.1033 24.6388 54.2421 24.8846 53.2824 24.8846C51.0184 24.8846 49.2467 23.5077 49.2467 21.7619C49.2467 21.3684 49.3451 20.9996 49.4928 20.6554C49.5174 20.6062 49.4928 20.557 49.4436 20.5324C44.1775 18.2702 39.256 17.803 36.0324 17.803C35.7371 17.803 35.491 17.8768 35.3433 17.9998C35.1219 18.1965 26.0416 25.8682 23.1872 28.3271C23.0641 28.4254 23.1625 28.5238 23.2118 28.573C23.7531 29.0647 24.0484 29.6795 24.0484 30.3434C24.0484 31.4007 23.261 32.3597 21.9568 32.876C21.317 33.1219 20.5541 33.2694 19.8159 33.2694C19.1761 33.2694 18.5117 33.1711 17.9457 32.9744C17.9211 32.9744 17.7735 32.9498 17.7242 32.999C17.6504 33.0727 17.4536 33.2203 17.1583 33.4662C16.5923 33.9333 15.2635 35.0153 14.3284 35.8021C14.2792 35.8513 14.3284 35.9742 14.4268 35.9496ZM35.4664 22.6716C37.7303 22.6716 39.502 24.0486 39.502 25.7944C39.502 27.5402 37.7303 28.9172 35.4664 28.9172C33.2025 28.9172 31.4307 27.5402 31.4307 25.7944C31.4307 24.0486 33.2025 22.6716 35.4664 22.6716Z" fill="#FFE183"/>
<path d="M27.3711 38.8766C25.7967 38.8766 24.5176 40.1056 24.5176 41.5804C24.5176 43.0798 25.7967 44.2842 27.3711 44.2842C28.9454 44.2842 30.2245 43.0552 30.2245 41.5804C30.2245 40.1056 28.9454 38.8766 27.3711 38.8766Z" fill="#F3A334"/>
<path d="M25.6983 41.6048C25.6983 40.302 26.6823 39.2205 27.9614 38.9501C27.7646 38.9009 27.5678 38.9009 27.3711 38.9009C25.7967 38.9009 24.5176 40.1299 24.5176 41.6048C24.5176 43.1041 25.7967 44.3086 27.3711 44.3086C27.5678 44.3086 27.7646 44.284 27.9614 44.2594C26.6577 43.989 25.6983 42.9075 25.6983 41.6048Z" fill="#E87E04"/>
<path d="M42.5289 31.7457C42.3813 31.7457 42.2583 31.7457 42.1107 31.7702C40.5364 31.9669 40.1674 32.4585 40.0198 32.9501C39.946 33.1959 39.9214 33.2696 39.9214 33.7367C39.9214 35.1377 41.1021 36.2684 42.5289 36.2684C43.9802 36.2684 45.1364 35.1377 45.1364 33.7367C45.1364 33.073 44.7674 32.6306 44.4476 32.3847C43.9802 31.9669 43.2668 31.7457 42.5289 31.7457Z" fill="#FFC964"/>
<path d="M41.2005 33.54C41.2005 32.8763 41.4465 32.2618 41.8647 31.7948C40.5118 32.016 40.1674 32.4585 40.0198 32.9255C39.946 33.1713 39.9214 33.245 39.9214 33.7121C39.9214 35.1131 41.1021 36.2438 42.5289 36.2438C42.7995 36.2438 43.0454 36.1946 43.2668 36.1455C42.0861 35.8259 41.2005 34.769 41.2005 33.54Z" fill="#F3A334"/>
<path d="M35.4667 27.245C36.7212 27.245 37.8528 26.5568 37.8528 25.7948C37.8528 25.1065 36.8688 24.3445 35.4667 24.3445C34.0645 24.3445 33.0806 25.1065 33.0806 25.7948C33.0806 26.5568 34.1875 27.245 35.4667 27.245Z" fill="#FFC964"/>
<path d="M61.6748 27.1228C60.2229 25.5983 58.6727 24.2213 56.9993 22.9918C56.7533 22.8197 56.5318 22.6476 56.2857 22.4755C55.9658 22.2542 55.5475 22.3033 55.2522 22.5738C55.0061 22.7951 54.637 22.9918 54.2433 23.1148C53.948 23.1885 53.6281 23.2377 53.2836 23.2377C52.0286 23.2377 50.8966 22.5492 50.8966 21.787C50.8966 21.6149 50.9459 21.4673 51.0443 21.2952C51.1919 21.0739 51.4134 20.8772 51.7087 20.7051C52.0778 20.5084 52.0532 19.9674 51.6595 19.7707C51.3642 19.6232 51.0443 19.4756 50.7244 19.3281C49.2971 18.6888 47.8207 18.1232 46.2704 17.6561C42.973 16.6725 39.5033 16.1561 36.0582 16.1561C35.3692 16.1561 34.7294 16.3528 34.2864 16.7463C34.0896 16.9184 23.5821 25.8196 21.5151 27.5654C21.3182 27.7375 21.1459 27.9342 21.0475 28.1063C20.7768 28.5981 21.0229 29.1636 21.5151 29.4095C22.0564 29.6554 22.3271 30.0488 22.3271 30.3685C22.3271 30.7127 22.0072 31.057 21.3674 31.3029C20.8999 31.475 20.3831 31.5734 19.8417 31.5734C19.3742 31.5734 18.9066 31.4996 18.4883 31.3766C18.4883 31.3766 18.1192 31.2291 17.8239 31.2291C17.4302 31.2291 17.0365 31.4012 16.6674 31.6963C16.5935 31.7455 16.3967 31.9176 16.126 32.1389C13.9851 33.9093 12.484 35.1633 12.1149 35.6059C11.6474 36.1469 11.3767 36.5895 11.2783 36.737C11.0814 36.9829 10.54 37.8435 10.54 39.2205V43.499C10.54 44.3596 11.106 44.753 11.6966 44.753C11.8196 44.753 11.9181 44.7284 11.9673 44.7284H11.9919C12.0411 44.7284 12.1149 44.7284 12.1641 44.7284C12.927 44.7284 13.5668 45.3923 13.5668 46.2283C13.5668 47.0644 12.927 47.7283 12.1641 47.7283C12.1149 47.7283 12.0657 47.7283 12.0165 47.7283C11.9673 47.7283 11.9181 47.7283 11.8442 47.7283C11.2044 47.7283 10.54 48.1954 10.54 49.0069V54.9574C10.54 55.7934 11.1798 56.4573 12.0165 56.4573C12.1149 56.4573 12.2134 56.4573 12.3118 56.4327C12.927 56.3344 34.2864 52.7198 48.4113 50.3593C48.8296 50.2855 49.2479 50.2117 49.6416 50.1626H49.6909C50.4537 50.0396 50.872 49.2282 50.6013 48.5151C50.5767 48.4659 50.5521 48.3922 50.5275 48.343C50.4537 48.0971 50.4045 47.8512 50.4045 47.6053C50.4045 46.1054 51.6841 44.9005 53.259 44.9005C54.76 44.9005 55.9904 46.007 56.1135 47.4086C56.1135 47.4824 56.1135 47.5315 56.1135 47.6053V47.6299C56.1135 48.3922 56.8025 48.9823 57.5407 48.8348H57.5899C59.4847 48.5151 60.912 48.2692 61.6256 48.1463C62.1916 48.0479 62.8806 47.7283 62.8806 46.6709C62.8806 46.6218 62.8806 46.1546 62.8806 45.3923C62.9052 42.2695 62.979 33.9585 62.979 30.639C62.979 29.7538 62.6591 28.8932 62.5853 28.721C62.5853 28.4752 62.29 27.7621 61.6748 27.1228ZM14.3542 35.8026C15.2893 34.9912 16.6181 33.9093 17.1841 33.4667C17.4794 33.2208 17.6763 33.0487 17.7501 32.9995C17.7993 32.9749 17.947 32.9749 17.9716 32.9749C18.5375 33.1716 19.2019 33.27 19.8417 33.27C20.6046 33.27 21.3428 33.1225 21.9826 32.8766C23.2868 32.3356 24.0743 31.4012 24.0743 30.3193C24.0743 29.6554 23.779 29.0653 23.2376 28.5489C23.1884 28.4998 23.09 28.4014 23.213 28.303C26.0921 25.8687 35.1477 18.1724 35.3692 17.9757C35.5168 17.8528 35.7629 17.779 36.0582 17.779C39.2572 17.779 44.1787 18.2462 49.4694 20.5084C49.5186 20.5329 49.5432 20.5821 49.5186 20.6313C49.3463 20.9756 49.2725 21.3444 49.2725 21.7378C49.2725 23.4836 51.0443 24.8606 53.3082 24.8606C54.2679 24.8606 55.1292 24.6147 55.8182 24.1967C55.8428 24.1721 55.892 24.1721 55.9166 24.1967C57.4423 25.3278 58.9433 26.631 60.4198 28.1555C60.3952 28.2539 60.3952 28.2293 60.3706 28.303L59.7554 28.4506L45.2369 30.8603C45.2123 30.8603 45.1877 30.8603 45.163 30.8357C44.4248 30.3439 43.4897 30.0734 42.53 30.0734C42.3086 30.0734 42.1117 30.098 41.9148 30.1226C40.8321 30.2701 39.3556 30.5898 38.6666 31.9176C38.642 31.9422 38.642 31.9668 38.5928 31.9668L14.4281 35.9502C14.3296 35.9748 14.2804 35.8518 14.3542 35.8026ZM44.474 32.3848C44.7939 32.6307 45.163 33.0733 45.163 33.7372C45.163 35.1387 43.9819 36.2698 42.5546 36.2698C41.1028 36.2698 39.9462 35.1387 39.9462 33.7372C39.9462 33.27 39.9708 33.1962 40.0446 32.9503C40.1923 32.4586 40.5614 31.9668 42.1363 31.7701C42.2839 31.7455 42.407 31.7455 42.5546 31.7455C43.2683 31.7455 43.9819 31.9668 44.474 32.3848ZM61.2811 45.2694C61.2811 45.7611 61.2811 46.13 61.2811 46.3513C61.2811 46.4005 61.2565 46.425 61.2072 46.4496C60.5182 46.5726 59.3863 46.7693 57.9098 47.0152C57.8606 47.0152 57.8114 46.9906 57.8114 46.9414C57.5161 44.8022 55.6213 43.1301 53.3328 43.1301C50.8474 43.1301 48.805 45.0972 48.805 47.507C48.805 47.8266 48.8542 48.1217 48.9034 48.4413C48.9034 48.4905 48.8788 48.5397 48.8296 48.5397C48.6081 48.5889 48.3867 48.6135 48.1652 48.6626C34.0158 51.0478 14.8956 54.2689 12.3364 54.7115C12.2872 54.7115 12.238 54.6869 12.238 54.6131V49.4741C12.238 49.4249 12.2872 49.3757 12.3364 49.3757C13.9605 49.3019 15.2893 47.925 15.2893 46.2283C15.2893 44.5317 13.9851 43.1301 12.3364 43.081C12.2872 43.081 12.238 43.0318 12.238 42.9826V38.7779C12.238 38.1878 12.3856 38.114 12.8286 37.9665L38.1745 33.7126C38.2237 33.7618 38.2237 33.7618 38.2729 33.8109C38.3221 36.0731 40.2169 37.9173 42.5546 37.9173C44.917 37.9173 46.8364 36.0485 46.8364 33.7372C46.8364 33.0979 46.6641 32.6307 46.5657 32.434C46.5411 32.3848 46.5657 32.311 46.6395 32.311L60.0507 30.098L61.2319 29.9259C61.2811 29.9259 61.3303 29.9505 61.3303 29.9997C61.3795 30.1964 61.4041 30.3931 61.4041 30.5898C61.3795 33.8601 61.3057 42.1466 61.2811 45.2694Z" fill="#323063"/>
<path d="M35.4664 28.8911C37.7295 28.8911 39.5006 27.5146 39.5006 25.7694C39.5006 24.0242 37.7295 22.6477 35.4664 22.6477C33.2033 22.6477 31.4321 24.0242 31.4321 25.7694C31.4321 27.5146 33.2033 28.8911 35.4664 28.8911ZM35.4664 24.3192C36.8685 24.3192 37.8524 25.0811 37.8524 25.7694C37.8524 26.5314 36.7455 27.2196 35.4664 27.2196C34.2118 27.2196 33.0803 26.5314 33.0803 25.7694C33.0803 25.1057 34.0642 24.3192 35.4664 24.3192Z" fill="#323063"/>
<path d="M27.3716 37.2289C24.8862 37.2289 22.8438 39.196 22.8438 41.6057C22.8438 44.0154 24.8616 45.9825 27.3716 45.9825C29.8569 45.9825 31.8994 44.0154 31.8994 41.6057C31.8994 39.196 29.8569 37.2289 27.3716 37.2289ZM27.3716 44.3105C25.7967 44.3105 24.5171 43.081 24.5171 41.6057C24.5171 40.1058 25.7967 38.9009 27.3716 38.9009C28.9465 38.9009 30.2261 40.1304 30.2261 41.6057C30.2261 43.1056 28.9465 44.3105 27.3716 44.3105Z" fill="#323063"/>
<path d="M33.9907 25.4259C33.9907 25.0572 34.2613 24.6885 34.7287 24.3935C33.7447 24.5901 33.0806 25.2046 33.0806 25.77C33.0806 26.532 34.1875 27.2202 35.4667 27.2202C36.0816 27.2202 36.672 27.0481 37.1148 26.8023C36.8688 26.8515 36.6228 26.8761 36.3768 26.8761C35.0977 26.8761 33.9907 26.2124 33.9907 25.4259Z" fill="#F3A334"/>
<path d="M12.2869 49.4002C12.2377 49.4002 12.1885 49.4494 12.1885 49.4985V54.6358C12.1885 54.6849 12.2377 54.7341 12.2869 54.7341C12.6559 54.6849 13.3446 54.562 14.2794 54.39V48.5153C13.7874 49.0069 13.074 49.351 12.2869 49.4002Z" fill="#F3A334"/>
<path d="M12.8038 37.991C12.361 38.1385 12.2134 38.2123 12.2134 38.8022V42.9808C12.2134 43.03 12.2626 43.0791 12.3118 43.0791C13.0989 43.1037 13.8123 43.4478 14.3289 43.9886V37.7452L12.8038 37.991Z" fill="#F3A334"/>
<path d="M36.0584 17.8285C35.7631 17.8285 35.5171 17.9023 35.3694 18.0252C35.1479 18.2219 26.0677 25.8936 23.2132 28.3525C23.0902 28.4509 23.1886 28.5492 23.2378 28.5984C23.5577 28.8935 23.8038 29.2131 23.9268 29.582L37.7071 17.8777C37.1166 17.8531 36.5752 17.8285 36.0584 17.8285Z" fill="#F3A334"/>
<path d="M17.9699 32.975C17.9453 32.975 17.7977 32.9504 17.7485 32.9996C17.6747 33.0733 17.478 33.2208 17.1828 33.4666C16.617 33.9336 15.2887 35.0152 14.3539 35.8017C14.2801 35.8509 14.3293 35.9738 14.4277 35.9738L16.863 35.5805L19.5935 33.27C19.0277 33.2454 18.4619 33.1471 17.9699 32.975Z" fill="#F3A334"/>
<path d="M36.7811 0.364807C35.8243 0.364807 34.8675 0.364807 33.9106 0.501495C52.3635 2.00506 66.9891 17.4508 66.9891 36.3137C66.9891 55.1767 52.5002 70.6224 33.9106 72.126C34.8675 72.2627 35.8243 72.2627 36.7811 72.2627C56.6008 72.2627 72.73 56.1335 72.73 36.3137C72.73 16.494 56.6008 0.364807 36.7811 0.364807Z" fill="#CA4B21"/>
</svg>
