<svg width="133" height="117" viewBox="0 0 133 117" fill="none" xmlns="http://www.w3.org/2000/svg">
<path d="M87.785 34.2481L117.129 52.6121L122.472 68.9148L97.16 61.6067L87.785 34.2481Z" fill="#6D6D93"/>
<path d="M122.472 94.2122H97.16V61.7004L122.472 68.9149V94.2122Z" fill="#C1C1C1"/>
<path d="M39.3163 101.052L28.8163 23.4734C28.6288 22.1617 27.5038 21.131 26.1913 21.131H20.9413C19.6288 21.131 18.5976 22.068 18.3163 23.3797L5.19132 100.958C4.91007 102.457 5.94132 103.769 7.34757 104.05C7.44132 104.05 7.62882 104.05 7.81632 104.05H36.6913C38.0976 104.05 39.3163 102.832 39.3163 101.333C39.3163 101.333 39.3163 101.145 39.3163 101.052ZM28.6288 61.3256H17.2851L19.0663 50.6445H27.1288L28.6288 61.3256ZM23.1913 26.5653H23.9413L24.6913 31.9058H22.2538L23.1913 26.5653ZM21.3163 37.2463H25.3476L26.4726 45.304H20.0038L21.3163 37.2463ZM11.0038 98.7094L16.3476 66.7599H29.2851L33.5976 98.8031H11.0038V98.7094Z" fill="#D0D0D0"/>
<path d="M23.004 99.178V55.1419L32.379 37.1528L59.2853 30.1257L86.1916 37.1528L95.5666 55.1419V99.178H23.004Z" fill="#D8D8D8"/>
<path d="M31.9103 38.7456L22.5353 56.8284V100.864H28.5353V58.2339L42.7853 36.0284L31.9103 38.7456Z" fill="#B6B6B6"/>
<path d="M45.1287 20.3816L42.035 10.169L26.3787 17.7582L29.0037 0.331125L18.5975 0.143738L20.8475 17.6645L5.37875 9.7005L2.00375 19.9131L18.9725 23.0987L6.785 35.6537L15.2225 42.0248L23.4725 26.4717L31.3475 42.2122L39.8787 36.0284L28.0662 23.1924L45.1287 20.3816Z" fill="#ABAACB"/>
<path d="M59.1909 31.8123L84.8784 38.5582L93.6909 55.5168V97.4916H24.6909V55.5168L33.5034 38.5582L59.1909 31.8123ZM59.1909 28.3456L31.1597 35.6537L21.3159 54.6736V100.771H97.1596V54.6736L87.2221 35.6537L59.1909 28.3456Z" fill="#323063"/>
<path d="M67.4414 44.8356H50.9415V61.3257H67.4414V44.8356Z" fill="white"/>
<path d="M80.6596 94.2122V72.7563H37.8159V94.2122H21.3159V102.457H97.1596V94.2122H80.6596Z" fill="#E7E7E7"/>
<path d="M61.535 52.9869L68.66 45.8662C69.3162 45.2103 69.3162 44.1797 68.66 43.5238C68.0037 42.868 66.9725 42.868 66.3162 43.5238L59.1912 50.7382L52.0662 43.6175C51.41 42.9617 50.3787 42.9617 49.7225 43.6175C49.0662 44.2734 49.0662 45.304 49.7225 45.9598L56.8475 53.0806L49.8162 60.1076C49.16 60.7634 49.16 61.7941 49.8162 62.4499C50.0975 62.731 50.5662 62.9184 50.9412 62.9184C51.3162 62.9184 51.785 62.731 52.0662 62.4499L59.1912 55.3292L66.3162 62.4499C66.5975 62.731 67.0662 62.9184 67.4412 62.9184C67.8162 62.9184 68.285 62.731 68.5662 62.4499C69.2225 61.7941 69.2225 60.7634 68.5662 60.1076L61.535 52.9869Z" fill="#323063"/>
<path d="M67.4417 62.9184H50.9417C50.0042 62.9184 49.2542 62.1688 49.2542 61.2319V44.8355C49.2542 43.8986 50.0042 43.149 50.9417 43.149H67.4417C68.3792 43.149 69.1292 43.8986 69.1292 44.8355V61.3256C69.1292 62.1688 68.3792 62.9184 67.4417 62.9184ZM52.6292 59.6391H65.848V46.4283H52.6292V59.6391Z" fill="#323063"/>
<path d="M82.3473 102.457V74.4427C83.2848 74.4427 84.0348 73.6932 84.0348 72.7563V71.0698C84.0348 70.1328 83.2848 69.3833 82.3473 69.3833H36.1285C35.191 69.3833 34.441 70.1328 34.441 71.0698V72.7563C34.441 73.6932 35.191 74.4427 36.1285 74.4427V102.457H39.4097V74.4427H57.5972V102.457H60.8785V74.4427H79.066V102.457H82.3473Z" fill="#323063"/>
<path d="M98.4727 63.7616L83.4727 39.8698L59.2852 32.2806L35.0977 39.8698L20.0977 63.7616C19.6289 64.5112 18.5977 64.7923 17.8477 64.3238L15.0352 62.5436C14.2852 62.0752 14.0039 61.0445 14.4727 60.295L30.7852 34.2481L59.3789 25.3472L87.8789 34.2481L104.191 60.295C104.66 61.0445 104.473 62.0752 103.629 62.5436L100.816 64.3238C99.9727 64.7923 98.9414 64.6049 98.4727 63.7616Z" fill="#323063"/>
<path d="M122.472 94.2121H97.16V100.771H122.472V94.2121Z" fill="#D8D8D8"/>
<path d="M120.785 42.587C126.316 42.587 130.816 47.0843 130.816 52.6122V68.6339C130.816 74.1618 126.316 78.6591 120.785 78.6591C115.253 78.6591 110.753 74.1618 110.753 68.6339V52.6122C110.66 47.0843 115.16 42.587 120.785 42.587Z" fill="#008100"/>
<path d="M118.723 64.6986H122.754V100.864H118.723V64.6986Z" fill="#763A02"/>
<path d="M130.16 104.144H2.66C1.44125 104.144 0.409996 103.394 0.409996 102.457C0.409996 101.52 1.44125 100.771 2.66 100.771H130.066C131.285 100.771 132.316 101.52 132.316 102.457C132.41 103.394 131.379 104.144 130.16 104.144Z" fill="#31BE00"/>
<path d="M88.9958 116.828C103.032 116.828 114.41 105.449 114.41 91.4136C114.41 77.3777 103.032 65.9993 88.9958 65.9993C74.9599 65.9993 63.5815 77.3777 63.5815 91.4136C63.5815 105.449 74.9599 116.828 88.9958 116.828Z" fill="#F3BA2F"/>
<path d="M82.8264 88.8786L88.9957 82.7093L95.1682 88.8818L98.758 85.2921L88.9957 75.5298L79.2366 85.2889L82.8264 88.8786ZM73.1118 91.4137L76.7016 87.8239L80.2913 91.4137L76.7016 95.0035L73.1118 91.4137ZM82.8264 93.9488L88.9957 100.118L95.1682 93.9456L98.758 97.5338L88.9957 107.298L79.2366 97.5385L79.2319 97.5338L82.8264 93.9488ZM97.7001 91.4137L101.29 87.8239L104.88 91.4137L101.29 95.0035L97.7001 91.4137ZM92.6363 91.4105H92.6395V91.4137L88.9957 95.0575L85.3567 91.4201L85.3504 91.4137L85.3567 91.4089L85.9937 90.7704L86.3034 90.4607L88.9957 87.7699L92.6379 91.4121L92.6363 91.4105Z" fill="white"/>
<path d="M88.995 66.0715C88.3185 66.0715 87.6421 66.0715 86.9657 66.1682C100.011 67.2312 110.351 78.1509 110.351 91.4865C110.351 104.822 100.108 115.742 86.9657 116.805C87.6421 116.902 88.3185 116.902 88.995 116.902C103.007 116.902 114.41 105.499 114.41 91.4865C114.41 77.4745 103.007 66.0715 88.995 66.0715Z" fill="#ECA907"/>
<path d="M29.7864 116.902C43.8227 116.902 55.2014 105.523 55.2014 91.4865C55.2014 77.4502 43.8227 66.0715 29.7864 66.0715C15.7501 66.0715 4.37143 77.4502 4.37143 91.4865C4.37143 105.523 15.7501 116.902 29.7864 116.902Z" fill="#F0B90B"/>
<path d="M29.7864 66.0715C29.11 66.0715 28.4335 66.0715 27.7571 66.1682C40.8028 67.2312 51.1428 78.1509 51.1428 91.4865C51.1428 104.822 40.8995 115.742 27.7571 116.805C28.4335 116.902 29.11 116.902 29.7864 116.902C43.7985 116.902 55.2014 105.499 55.2014 91.4865C55.2014 77.4745 43.7985 66.0715 29.7864 66.0715Z" fill="#ECA907"/>
<path fill-rule="evenodd" clip-rule="evenodd" d="M18.9701 85.0311L29.7969 74.2043L34.1139 78.5213L23.2871 89.3481L18.9701 85.0311ZM18.978 97.9689L36.2802 80.6666L40.5972 84.9836L23.295 102.286L18.978 97.9689ZM42.7514 87.15L25.4491 104.452L29.7659 108.769L47.0687 91.4667L42.7514 87.15ZM12.5043 91.4957L16.8212 87.1787L21.1382 91.4957L16.8212 95.8127L12.5043 91.4957Z" fill="white"/>
</svg>
