<svg width="96" height="86" viewBox="0 0 96 86" fill="none" xmlns="http://www.w3.org/2000/svg">
<path d="M63.6774 25.4292L84.8588 38.6849L88.7161 50.4528L70.4446 45.1776L63.6774 25.4292Z" fill="#6D6D93"/>
<path d="M88.7162 68.7134H70.4447V45.2452L88.7162 50.4529V68.7134Z" fill="#C1C1C1"/>
<path d="M28.691 73.6504L21.1117 17.6515C20.9764 16.7047 20.1643 15.9608 19.2169 15.9608H15.4273C14.4799 15.9608 13.7355 16.6371 13.5325 17.5839L4.05835 73.5828C3.85534 74.6649 4.59973 75.6117 5.61481 75.8146C5.68248 75.8146 5.81783 75.8146 5.95317 75.8146H26.7962C27.8113 75.8146 28.691 74.9354 28.691 73.8533C28.691 73.8533 28.691 73.7181 28.691 73.6504ZM20.9764 44.9747H12.7881L14.0738 37.2647H19.8936L20.9764 44.9747ZM17.0514 19.8834H17.5928L18.1342 23.7384H16.3747L17.0514 19.8834ZM15.698 27.5934H18.6079L19.4199 33.4097H14.7506L15.698 27.5934ZM8.25403 71.9596L12.1113 48.8973H21.4501L24.563 72.0273H8.25403V71.9596Z" fill="#D0D0D0"/>
<path d="M16.9162 72.2979V40.5111L23.6834 27.5258L43.1053 22.4535L62.5272 27.5258L69.2944 40.5111V72.2979H16.9162Z" fill="#D8D8D8"/>
<path d="M23.3451 28.6756L16.5779 41.7285V73.5153H20.9089V42.7429L31.1951 26.7143L23.3451 28.6756Z" fill="#B6B6B6"/>
<path d="M32.8866 15.4198L30.6534 8.04795L19.3522 13.5261L21.247 0.946641L13.7354 0.811378L15.3595 13.4585L4.19364 7.70979L1.75745 15.0816L14.0061 17.3811L5.20873 26.4437L11.2992 31.0427L17.2544 19.8158L22.9388 31.1779L29.097 26.7142L20.5703 17.4487L32.8866 15.4198Z" fill="#ABAACB"/>
<path d="M43.0372 23.6709L61.5794 28.5404L67.9405 40.7817V71.0806H18.1339V40.7817L24.4951 28.5404L43.0372 23.6709ZM43.0372 21.1685L22.8033 26.4438L15.6977 40.173V73.4477H70.4444V40.173L63.2712 26.4438L43.0372 21.1685Z" fill="#323063"/>
<path d="M48.9927 33.0716H37.0825V44.9747H48.9927V33.0716Z" fill="white"/>
<path d="M58.5341 68.7134V53.2258H27.608V68.7134H15.6977V74.665H70.4444V68.7134H58.5341Z" fill="#E7E7E7"/>
<path d="M44.7293 38.9555L49.8723 33.8155C50.346 33.3421 50.346 32.5981 49.8723 32.1247C49.3986 31.6513 48.6542 31.6513 48.1805 32.1247L43.0375 37.3323L37.8944 32.1923C37.4207 31.7189 36.6763 31.7189 36.2026 32.1923C35.7289 32.6657 35.7289 33.4097 36.2026 33.8831L41.3457 39.0231L36.2702 44.0955C35.7965 44.5689 35.7965 45.3128 36.2702 45.7862C36.4733 45.9891 36.8116 46.1244 37.0823 46.1244C37.353 46.1244 37.6914 45.9891 37.8944 45.7862L43.0375 40.6463L48.1805 45.7862C48.3836 45.9891 48.7219 46.1244 48.9926 46.1244C49.2633 46.1244 49.6017 45.9891 49.8047 45.7862C50.2784 45.3128 50.2784 44.5689 49.8047 44.0955L44.7293 38.9555Z" fill="#323063"/>
<path d="M48.993 46.1244H37.0827C36.4059 46.1244 35.8646 45.5834 35.8646 44.907V33.0715C35.8646 32.3952 36.4059 31.8542 37.0827 31.8542H48.993C49.6697 31.8542 50.2111 32.3952 50.2111 33.0715V44.9747C50.2111 45.5834 49.6697 46.1244 48.993 46.1244ZM38.3008 43.7573H47.8426V34.2213H38.3008V43.7573Z" fill="#323063"/>
<path d="M59.7523 74.6649V54.4431C60.429 54.4431 60.9704 53.902 60.9704 53.2257V52.0083C60.9704 51.332 60.429 50.791 59.7523 50.791H26.3899C25.7132 50.791 25.1718 51.332 25.1718 52.0083V53.2257C25.1718 53.902 25.7132 54.4431 26.3899 54.4431V74.6649H28.7584V54.4431H41.8869V74.6649H44.2554V54.4431H57.3838V74.6649H59.7523Z" fill="#323063"/>
<path d="M71.3922 46.7331L60.5647 29.4871L43.1052 24.0089L25.6458 29.4871L14.8183 46.7331C14.4799 47.2741 13.7355 47.477 13.1941 47.1389L11.164 45.8539C10.6226 45.5157 10.4196 44.7718 10.758 44.2307L22.5329 25.4292L43.1729 19.0042L63.7452 25.4292L75.5202 44.2307C75.8586 44.7718 75.7232 45.5157 75.1142 45.8539L73.084 47.1389C72.475 47.477 71.7306 47.3418 71.3922 46.7331Z" fill="#323063"/>
<path d="M88.7162 68.7133H70.4447V73.4476H88.7162V68.7133Z" fill="#D8D8D8"/>
<path d="M87.4978 31.4485C91.4905 31.4485 94.7387 34.6948 94.7387 38.685V50.25C94.7387 54.2403 91.4905 57.4866 87.4978 57.4866C83.5052 57.4866 80.2569 54.2403 80.2569 50.25V38.685C80.1892 34.6948 83.4375 31.4485 87.4978 31.4485Z" fill="#008100"/>
<path d="M86.0093 47.4094H88.9192V73.5152H86.0093V47.4094Z" fill="#763A02"/>
<path d="M94.2652 75.8823H2.23113C1.35139 75.8823 0.606995 75.3412 0.606995 74.6649C0.606995 73.9886 1.35139 73.4475 2.23113 73.4475H94.1976C95.0773 73.4475 95.8217 73.9886 95.8217 74.6649C95.8894 75.3412 95.145 75.8823 94.2652 75.8823Z" fill="#31BE00"/>
<path d="M64.9038 85.0914C75.0357 85.0914 83.2493 76.8778 83.2493 66.7459C83.2493 56.614 75.0357 48.4004 64.9038 48.4004C54.7719 48.4004 46.5583 56.614 46.5583 66.7459C46.5583 76.8778 54.7719 85.0914 64.9038 85.0914Z" fill="#F0B90B"/>
<path d="M64.9038 48.4005C64.4155 48.4005 63.9272 48.4005 63.439 48.4702C72.8558 49.2375 80.3196 57.1198 80.3196 66.7459C80.3196 76.3721 72.9256 84.2543 63.439 85.0216C63.9272 85.0914 64.4155 85.0914 64.9038 85.0914C75.0182 85.0914 83.2493 76.8603 83.2493 66.7459C83.2493 56.6315 75.0182 48.4005 64.9038 48.4005Z" fill="#ECA907"/>
<path fill-rule="evenodd" clip-rule="evenodd" d="M57.0962 62.0862L64.9113 54.271L68.0275 57.3872L60.2123 65.2023L57.0962 62.0862ZM57.1019 71.4251L69.5913 58.9357L72.7074 62.0519L60.218 74.5413L57.1019 71.4251ZM74.2624 63.6156L61.773 76.105L64.889 79.2208L77.3787 66.7316L74.2624 63.6156ZM52.4289 66.7525L55.5451 63.6364L58.6612 66.7525L55.5451 69.8687L52.4289 66.7525Z" fill="white"/>
<circle cx="21.9042" cy="66.693" r="18.3447" fill="#E67B57"/>
<path d="M34.3688 63.4344L33.766 63.5223L26.9221 64.6516C26.897 64.6516 26.8719 64.6892 26.8844 64.7143C26.9347 64.8147 27.0226 65.0531 27.0226 65.3794C27.0226 66.5589 26.0431 67.5125 24.8375 67.5125C23.6446 67.5125 22.6776 66.5714 22.6525 65.417C22.6274 65.3919 22.6274 65.3919 22.6023 65.3668L9.6679 67.5502C9.44186 67.6255 9.36652 67.6631 9.36652 67.9643V70.0974C9.36652 70.1225 9.39163 70.1476 9.41675 70.1476C10.2456 70.1853 10.9237 70.888 10.9237 71.7538C10.9237 72.6196 10.2581 73.3348 9.41675 73.3599C9.39163 73.3599 9.36652 73.385 9.36652 73.4101V76.0327C9.36652 76.0578 9.39163 76.0829 9.41675 76.0829C10.7227 75.857 20.4675 74.2132 27.7007 72.996C27.8137 72.9709 27.9267 72.9584 28.0397 72.9333C28.0648 72.9333 28.0774 72.9082 28.0774 72.8831C28.0397 72.7325 28.0272 72.5694 28.0272 72.4063C28.0272 71.1766 29.0569 70.1727 30.3378 70.1727C31.5056 70.1727 32.4726 71.0134 32.6233 72.1177C32.6233 72.1428 32.6484 72.1679 32.6735 72.1553C33.427 72.0298 34.0046 71.9295 34.3562 71.8667C34.3813 71.8667 34.3939 71.8416 34.3939 71.8165C34.3939 71.7036 34.3939 71.5154 34.3939 71.2644C34.4065 69.6708 34.4441 65.4421 34.4441 63.7481C34.4441 63.6477 34.4316 63.5474 34.4065 63.447C34.419 63.447 34.3939 63.4344 34.3688 63.4344Z" fill="#FFC964"/>
<path d="M10.4959 66.5209L22.8275 64.4755C22.8401 64.4755 22.8527 64.463 22.8652 64.4504C23.2294 63.7728 23.9703 63.6097 24.5228 63.5344C24.6233 63.5219 24.7363 63.5093 24.8368 63.5093C25.3265 63.5093 25.8037 63.6474 26.1804 63.8983C26.193 63.9109 26.2055 63.9109 26.2181 63.9109L33.6271 62.6812L33.9285 62.631C33.9411 62.5808 33.9411 62.5933 33.9536 62.5557C33.2127 61.7777 32.4341 61.1127 31.6556 60.5354C31.643 60.5229 31.6179 60.5229 31.6053 60.5354C31.2537 60.7488 30.8142 60.8742 30.3245 60.8742C29.1691 60.8742 28.265 60.1716 28.265 59.2806C28.265 59.0799 28.3152 58.8917 28.3906 58.716C28.4031 58.6909 28.3906 58.6658 28.3655 58.6532C25.6781 57.4988 23.1666 57.2604 21.5215 57.2604C21.3709 57.2604 21.2453 57.2981 21.1699 57.3608C21.0569 57.4612 16.4231 61.3762 14.9665 62.631C14.9037 62.6812 14.9539 62.7314 14.979 62.7565C15.2553 63.0074 15.406 63.3211 15.406 63.6599C15.406 64.1995 15.0041 64.6889 14.3386 64.9524C14.0121 65.0778 13.6228 65.1531 13.2461 65.1531C12.9196 65.1531 12.5805 65.1029 12.2917 65.0026C12.2791 65.0026 12.2038 64.99 12.1787 65.0151C12.141 65.0527 12.0405 65.128 11.8898 65.2535C11.601 65.4919 10.9229 66.044 10.4457 66.4456C10.4206 66.4707 10.4457 66.5334 10.4959 66.5209ZM21.2327 59.7449C22.388 59.7449 23.2922 60.4476 23.2922 61.3385C23.2922 62.2294 22.388 62.9321 21.2327 62.9321C20.0774 62.9321 19.1733 62.2294 19.1733 61.3385C19.1733 60.4476 20.0774 59.7449 21.2327 59.7449Z" fill="#FFE183"/>
<path d="M17.1014 68.0145C16.298 68.0145 15.6453 68.6417 15.6453 69.3943C15.6453 70.1595 16.298 70.7741 17.1014 70.7741C17.9048 70.7741 18.5576 70.1469 18.5576 69.3943C18.5576 68.6417 17.9048 68.0145 17.1014 68.0145Z" fill="#F3A334"/>
<path d="M16.2478 69.4068C16.2478 68.742 16.7499 68.19 17.4027 68.0521C17.3023 68.027 17.2019 68.027 17.1014 68.027C16.298 68.027 15.6453 68.6542 15.6453 69.4068C15.6453 70.1719 16.298 70.7866 17.1014 70.7866C17.2019 70.7866 17.3023 70.774 17.4027 70.7615C16.7374 70.6235 16.2478 70.0716 16.2478 69.4068Z" fill="#E87E04"/>
<path d="M24.837 64.3755C24.7617 64.3755 24.6989 64.3755 24.6236 64.3881C23.8202 64.4884 23.6319 64.7393 23.5566 64.9902C23.5189 65.1156 23.5063 65.1533 23.5063 65.3916C23.5063 66.1066 24.1089 66.6836 24.837 66.6836C25.5776 66.6836 26.1676 66.1066 26.1676 65.3916C26.1676 65.0529 25.9793 64.8271 25.8161 64.7017C25.5776 64.4884 25.2136 64.3755 24.837 64.3755Z" fill="#FFC964"/>
<path d="M24.1591 65.2912C24.1591 64.9525 24.2846 64.6389 24.498 64.4006C23.8076 64.5135 23.6319 64.7393 23.5566 64.9776C23.5189 65.103 23.5063 65.1407 23.5063 65.379C23.5063 66.094 24.1089 66.671 24.837 66.671C24.9751 66.671 25.1006 66.6459 25.2136 66.6208C24.611 66.4578 24.1591 65.9184 24.1591 65.2912Z" fill="#F3A334"/>
<path d="M21.2329 62.0787C21.8731 62.0787 22.4506 61.7275 22.4506 61.3387C22.4506 60.9875 21.9484 60.5986 21.2329 60.5986C20.5174 60.5986 20.0153 60.9875 20.0153 61.3387C20.0153 61.7275 20.5802 62.0787 21.2329 62.0787Z" fill="#FFC964"/>
<path d="M34.6073 62.0164C33.8664 61.2384 33.0753 60.5357 32.2213 59.9083C32.0958 59.8205 31.9827 59.7327 31.8572 59.6448C31.6939 59.5319 31.4804 59.557 31.3297 59.695C31.2042 59.8079 31.0158 59.9083 30.8149 59.9711C30.6642 60.0087 30.5009 60.0338 30.3251 60.0338C29.6847 60.0338 29.107 59.6825 29.107 59.2935C29.107 59.2056 29.1322 59.1303 29.1824 59.0425C29.2577 58.9296 29.3708 58.8292 29.5214 58.7414C29.7098 58.641 29.6973 58.3649 29.4963 58.2645C29.3456 58.1892 29.1824 58.114 29.0191 58.0387C28.2908 57.7124 27.5373 57.4238 26.7462 57.1854C25.0635 56.6835 23.2929 56.42 21.5348 56.42C21.1832 56.42 20.8567 56.5204 20.6306 56.7211C20.5302 56.809 15.1681 61.3514 14.1132 62.2423C14.0128 62.3301 13.9249 62.4305 13.8746 62.5183C13.7365 62.7693 13.8621 63.0579 14.1132 63.1834C14.3895 63.3088 14.5276 63.5096 14.5276 63.6727C14.5276 63.8484 14.3644 64.0241 14.0379 64.1496C13.7993 64.2374 13.5356 64.2876 13.2593 64.2876C13.0207 64.2876 12.7821 64.25 12.5686 64.1872C12.5686 64.1872 12.3803 64.1119 12.2296 64.1119C12.0287 64.1119 11.8277 64.1998 11.6394 64.3503C11.6017 64.3754 11.5012 64.4633 11.3631 64.5762C10.2706 65.4797 9.50457 66.1196 9.3162 66.3455C9.07761 66.6215 8.93947 66.8474 8.88924 66.9227C8.78878 67.0482 8.51251 67.4873 8.51251 68.19V70.3734C8.51251 70.8126 8.80134 71.0134 9.10272 71.0134C9.16551 71.0134 9.21574 71.0008 9.24086 71.0008H9.25341C9.27853 71.0008 9.3162 71.0008 9.34132 71.0008C9.7306 71.0008 10.0571 71.3396 10.0571 71.7662C10.0571 72.1929 9.7306 72.5317 9.34132 72.5317C9.3162 72.5317 9.29109 72.5317 9.26597 72.5317C9.24086 72.5317 9.21574 72.5317 9.17807 72.5317C8.85157 72.5317 8.51251 72.7701 8.51251 73.1842V76.2208C8.51251 76.6474 8.83901 76.9862 9.26597 76.9862C9.3162 76.9862 9.36643 76.9862 9.41666 76.9737C9.7306 76.9235 20.6306 75.0789 27.8387 73.8743C28.0522 73.8367 28.2657 73.799 28.4666 73.7739H28.4917C28.881 73.7112 29.0945 73.2971 28.9564 72.9332C28.9438 72.9081 28.9312 72.8705 28.9187 72.8454C28.881 72.7199 28.8559 72.5944 28.8559 72.4689C28.8559 71.7035 29.5089 71.0886 30.3126 71.0886C31.0786 71.0886 31.7065 71.6533 31.7693 72.3685C31.7693 72.4062 31.7693 72.4313 31.7693 72.4689V72.4815C31.7693 72.8705 32.1209 73.1716 32.4976 73.0963H32.5227C33.4897 72.9332 34.218 72.8077 34.5822 72.745C34.871 72.6948 35.2226 72.5317 35.2226 71.9921C35.2226 71.967 35.2226 71.7286 35.2226 71.3396C35.2352 69.746 35.2728 65.5048 35.2728 63.8108C35.2728 63.359 35.1096 62.9199 35.0719 62.832C35.0719 62.7065 34.9212 62.3426 34.6073 62.0164ZM10.4589 66.4459C10.9361 66.0318 11.6142 65.4797 11.9031 65.2538C12.0538 65.1283 12.1542 65.0405 12.1919 65.0154C12.217 65.0028 12.2924 65.0028 12.3049 65.0028C12.5937 65.1032 12.9328 65.1534 13.2593 65.1534C13.6486 65.1534 14.0253 65.0781 14.3518 64.9526C15.0174 64.6766 15.4192 64.1998 15.4192 63.6476C15.4192 63.3088 15.2685 63.0077 14.9923 62.7442C14.9671 62.7191 14.9169 62.6689 14.9797 62.6187C16.4489 61.3764 21.0702 57.4489 21.1832 57.3485C21.2585 57.2858 21.3841 57.2481 21.5348 57.2481C23.1673 57.2481 25.6788 57.4866 28.3787 58.641C28.4038 58.6535 28.4164 58.6786 28.4038 58.7037C28.3159 58.8794 28.2782 59.0676 28.2782 59.2684C28.2782 60.1593 29.1824 60.862 30.3377 60.862C30.8274 60.862 31.267 60.7365 31.6186 60.5232C31.6311 60.5106 31.6562 60.5106 31.6688 60.5232C32.4474 61.1004 33.2134 61.7654 33.9669 62.5434C33.9543 62.5936 33.9543 62.5811 33.9417 62.6187L33.6278 62.694L26.2188 63.9237C26.2062 63.9237 26.1937 63.9237 26.1811 63.9112C25.8044 63.6602 25.3272 63.5222 24.8374 63.5222C24.7244 63.5222 24.624 63.5347 24.5235 63.5473C23.971 63.6225 23.2175 63.7857 22.8659 64.4633C22.8533 64.4758 22.8533 64.4884 22.8282 64.4884L10.4966 66.5211C10.4464 66.5337 10.4213 66.471 10.4589 66.4459ZM25.8295 64.7017C25.9927 64.8272 26.1811 65.053 26.1811 65.3918C26.1811 66.1071 25.5783 66.6843 24.85 66.6843C24.1091 66.6843 23.5189 66.1071 23.5189 65.3918C23.5189 65.1534 23.5315 65.1158 23.5691 64.9903C23.6445 64.7393 23.8328 64.4884 24.6365 64.388C24.7119 64.3754 24.7747 64.3754 24.85 64.3754C25.2142 64.3754 25.5783 64.4884 25.8295 64.7017ZM34.4064 71.2769C34.4064 71.5278 34.4064 71.716 34.4064 71.829C34.4064 71.8541 34.3938 71.8666 34.3687 71.8792C34.0171 71.9419 33.4394 72.0423 32.686 72.1678C32.6609 72.1678 32.6357 72.1552 32.6357 72.1301C32.485 71.0384 31.5181 70.1852 30.3502 70.1852C29.0819 70.1852 28.0396 71.189 28.0396 72.4187C28.0396 72.5819 28.0648 72.7324 28.0899 72.8956C28.0899 72.9207 28.0773 72.9458 28.0522 72.9458C27.9392 72.9708 27.8262 72.9834 27.7131 73.0085C20.4925 74.2257 10.7352 75.8694 9.42922 76.0953C9.4041 76.0953 9.37899 76.0828 9.37899 76.0451V73.4226C9.37899 73.3975 9.4041 73.3724 9.42922 73.3724C10.258 73.3347 10.9361 72.6321 10.9361 71.7662C10.9361 70.9004 10.2706 70.1852 9.42922 70.1601C9.4041 70.1601 9.37899 70.135 9.37899 70.1099V67.9642C9.37899 67.663 9.45434 67.6254 9.68037 67.5501L22.6147 65.3793C22.6399 65.4044 22.6399 65.4044 22.665 65.4295C22.6901 66.5839 23.657 67.525 24.85 67.525C26.0555 67.525 27.035 66.5713 27.035 65.3918C27.035 65.0656 26.9471 64.8272 26.8969 64.7268C26.8843 64.7017 26.8969 64.664 26.9346 64.664L33.7785 63.5347L34.3813 63.4469C34.4064 63.4469 34.4315 63.4594 34.4315 63.4845C34.4566 63.5849 34.4692 63.6853 34.4692 63.7857C34.4566 65.4546 34.4189 69.6833 34.4064 71.2769Z" fill="#323063"/>
<path d="M21.2327 62.9188C22.3876 62.9188 23.2915 62.2163 23.2915 61.3257C23.2915 60.4352 22.3876 59.7327 21.2327 59.7327C20.0778 59.7327 19.174 60.4352 19.174 61.3257C19.174 62.2163 20.0778 62.9188 21.2327 62.9188ZM21.2327 60.5857C21.9483 60.5857 22.4504 60.9745 22.4504 61.3257C22.4504 61.7146 21.8855 62.0658 21.2327 62.0658C20.5925 62.0658 20.0151 61.7146 20.0151 61.3257C20.0151 60.9871 20.5172 60.5857 21.2327 60.5857Z" fill="#323063"/>
<path d="M17.102 67.1737C15.8337 67.1737 14.7914 68.1775 14.7914 69.4072C14.7914 70.6369 15.8212 71.6408 17.102 71.6408C18.3704 71.6408 19.4127 70.6369 19.4127 69.4072C19.4127 68.1775 18.3704 67.1737 17.102 67.1737ZM17.102 70.7875C16.2984 70.7875 15.6454 70.1601 15.6454 69.4072C15.6454 68.6418 16.2984 68.0269 17.102 68.0269C17.9057 68.0269 18.5587 68.6543 18.5587 69.4072C18.5587 70.1726 17.9057 70.7875 17.102 70.7875Z" fill="#323063"/>
<path d="M20.4797 61.1504C20.4797 60.9623 20.6178 60.7741 20.8563 60.6236C20.3542 60.724 20.0153 61.0375 20.0153 61.3261C20.0153 61.7149 20.5802 62.0661 21.2329 62.0661C21.5467 62.0661 21.848 61.9783 22.074 61.8529C21.9484 61.878 21.8229 61.8905 21.6974 61.8905C21.0446 61.8905 20.4797 61.5518 20.4797 61.1504Z" fill="#F3A334"/>
<path d="M9.40409 73.3849C9.37899 73.3849 9.35388 73.41 9.35388 73.4351V76.0567C9.35388 76.0818 9.37899 76.1069 9.40409 76.1069C9.59239 76.0818 9.94388 76.0191 10.4209 75.9313V72.9333C10.1698 73.1842 9.8058 73.3598 9.40409 73.3849Z" fill="#F3A334"/>
<path d="M9.66779 67.5626C9.44184 67.6379 9.36652 67.6755 9.36652 67.9766V70.109C9.36652 70.134 9.39162 70.1591 9.41673 70.1591C9.81843 70.1717 10.1825 70.3473 10.4461 70.6232V67.4372L9.66779 67.5626Z" fill="#F3A334"/>
<path d="M21.5349 57.2734C21.3842 57.2734 21.2587 57.311 21.1833 57.3738C21.0703 57.4742 16.4365 61.3892 14.9798 62.644C14.9171 62.6942 14.9673 62.7443 14.9924 62.7694C15.1557 62.92 15.2812 63.0831 15.344 63.2714L22.3763 57.2985C22.0749 57.2859 21.7986 57.2734 21.5349 57.2734Z" fill="#F3A334"/>
<path d="M12.3043 65.0029C12.2918 65.0029 12.2164 64.9903 12.1913 65.0154C12.1537 65.053 12.0532 65.1283 11.9026 65.2537C11.6139 65.4921 10.936 66.044 10.459 66.4454C10.4213 66.4705 10.4464 66.5332 10.4966 66.5332L11.7394 66.3325L13.1328 65.1534C12.8441 65.1408 12.5554 65.0907 12.3043 65.0029Z" fill="#F3A334"/>
<path d="M21.9037 48.3614C21.4154 48.3614 20.9271 48.3614 20.4388 48.4312C29.8556 49.1985 37.3193 57.0807 37.3193 66.7067C37.3193 76.3327 29.9254 84.2149 20.4388 84.9822C20.9271 85.0519 21.4154 85.0519 21.9037 85.0519C32.018 85.0519 40.2489 76.821 40.2489 66.7067C40.2489 56.5924 32.018 48.3614 21.9037 48.3614Z" fill="#CA4B21"/>
</svg>
