<svg width="133" height="117" viewBox="0 0 133 117" fill="none" xmlns="http://www.w3.org/2000/svg">
<path d="M87.6238 34.2481L116.968 52.6121L122.311 68.9148L96.9988 61.6067L87.6238 34.2481Z" fill="#6D6D93"/>
<path d="M122.311 94.2122H96.9988V61.7004L122.311 68.9149V94.2122Z" fill="#C1C1C1"/>
<path d="M39.1552 101.052L28.6552 23.4734C28.4677 22.1617 27.3427 21.131 26.0302 21.131H20.7802C19.4677 21.131 18.4364 22.068 18.1552 23.3797L5.03016 100.958C4.74891 102.457 5.78016 103.769 7.18641 104.05C7.28016 104.05 7.46766 104.05 7.65516 104.05H36.5302C37.9364 104.05 39.1552 102.832 39.1552 101.333C39.1552 101.333 39.1552 101.145 39.1552 101.052ZM28.4677 61.3256H17.1239L18.9052 50.6445H26.9677L28.4677 61.3256ZM23.0302 26.5653H23.7802L24.5302 31.9058H22.0927L23.0302 26.5653ZM21.1552 37.2463H25.1864L26.3114 45.304H19.8427L21.1552 37.2463ZM10.8427 98.7094L16.1864 66.7599H29.1239L33.4364 98.8031H10.8427V98.7094Z" fill="#D0D0D0"/>
<path d="M22.8429 99.178V55.1419L32.2179 37.1528L59.1241 30.1257L86.0304 37.1528L95.4054 55.1419V99.178H22.8429Z" fill="#D8D8D8"/>
<path d="M31.7491 38.7456L22.3741 56.8284V100.864H28.3741V58.2339L42.6242 36.0284L31.7491 38.7456Z" fill="#B6B6B6"/>
<path d="M44.9676 20.3816L41.8738 10.169L26.2176 17.7582L28.8426 0.331125L18.4363 0.143738L20.6863 17.6645L5.21759 9.7005L1.84259 19.9131L18.8113 23.0987L6.62384 35.6537L15.0613 42.0248L23.3113 26.4717L31.1863 42.2122L39.7176 36.0284L27.9051 23.1924L44.9676 20.3816Z" fill="#ABAACB"/>
<path d="M59.0298 31.8123L84.7172 38.5582L93.5297 55.5168V97.4916H24.5298V55.5168L33.3423 38.5582L59.0298 31.8123ZM59.0298 28.3456L30.9985 35.6537L21.1548 54.6736V100.771H96.9985V54.6736L87.061 35.6537L59.0298 28.3456Z" fill="#323063"/>
<path d="M67.2803 44.8356H50.7803V61.3257H67.2803V44.8356Z" fill="white"/>
<path d="M80.4985 94.2122V72.7563H37.6548V94.2122H21.1548V102.457H96.9985V94.2122H80.4985Z" fill="#E7E7E7"/>
<path d="M61.3738 52.9869L68.4988 45.8662C69.1551 45.2103 69.1551 44.1797 68.4988 43.5238C67.8426 42.868 66.8113 42.868 66.1551 43.5238L59.0301 50.7382L51.9051 43.6175C51.2488 42.9617 50.2176 42.9617 49.5613 43.6175C48.9051 44.2734 48.9051 45.304 49.5613 45.9598L56.6863 53.0806L49.6551 60.1076C48.9988 60.7634 48.9988 61.7941 49.6551 62.4499C49.9363 62.731 50.4051 62.9184 50.7801 62.9184C51.1551 62.9184 51.6238 62.731 51.9051 62.4499L59.0301 55.3292L66.1551 62.4499C66.4363 62.731 66.9051 62.9184 67.2801 62.9184C67.6551 62.9184 68.1238 62.731 68.4051 62.4499C69.0613 61.7941 69.0613 60.7634 68.4051 60.1076L61.3738 52.9869Z" fill="#323063"/>
<path d="M67.2806 62.9184H50.7806C49.8431 62.9184 49.093 62.1688 49.093 61.2319V44.8355C49.093 43.8986 49.8431 43.149 50.7806 43.149H67.2806C68.2181 43.149 68.9681 43.8986 68.9681 44.8355V61.3256C68.9681 62.1688 68.2181 62.9184 67.2806 62.9184ZM52.4681 59.6391H65.6868V46.4283H52.4681V59.6391Z" fill="#323063"/>
<path d="M82.1861 102.457V74.4427C83.1236 74.4427 83.8736 73.6932 83.8736 72.7563V71.0698C83.8736 70.1328 83.1236 69.3833 82.1861 69.3833H35.9673C35.0298 69.3833 34.2798 70.1328 34.2798 71.0698V72.7563C34.2798 73.6932 35.0298 74.4427 35.9673 74.4427V102.457H39.2486V74.4427H57.4361V102.457H60.7173V74.4427H78.9048V102.457H82.1861Z" fill="#323063"/>
<path d="M98.3115 63.7616L83.3115 39.8698L59.124 32.2806L34.9365 39.8698L19.9365 63.7616C19.4678 64.5112 18.4365 64.7923 17.6865 64.3238L14.874 62.5436C14.124 62.0752 13.8428 61.0445 14.3115 60.295L30.624 34.2481L59.2178 25.3472L87.7178 34.2481L104.03 60.295C104.499 61.0445 104.312 62.0752 103.468 62.5436L100.655 64.3238C99.8115 64.7923 98.7803 64.6049 98.3115 63.7616Z" fill="#323063"/>
<path d="M122.311 94.2121H96.9988V100.771H122.311V94.2121Z" fill="#D8D8D8"/>
<path d="M120.624 42.587C126.155 42.587 130.655 47.0843 130.655 52.6122V68.6339C130.655 74.1618 126.155 78.6591 120.624 78.6591C115.092 78.6591 110.592 74.1618 110.592 68.6339V52.6122C110.499 47.0843 114.999 42.587 120.624 42.587Z" fill="#008100"/>
<path d="M118.561 64.6986H122.593V100.864H118.561V64.6986Z" fill="#763A02"/>
<path d="M129.999 104.144H2.49884C1.28009 104.144 0.24884 103.394 0.24884 102.457C0.24884 101.52 1.28009 100.771 2.49884 100.771H129.905C131.124 100.771 132.155 101.52 132.155 102.457C132.249 103.394 131.218 104.144 129.999 104.144Z" fill="#31BE00"/>
<circle cx="29.6631" cy="91.4136" r="25.4143" fill="#E67B57"/>
<path d="M46.9312 86.8992L46.0961 87.0209L36.6148 88.5855C36.58 88.5855 36.5452 88.6376 36.5626 88.6724C36.6322 88.8115 36.7539 89.1417 36.7539 89.5937C36.7539 91.2278 35.397 92.549 33.7269 92.549C32.0741 92.549 30.7346 91.2452 30.6998 89.6459C30.665 89.6111 30.665 89.6111 30.6302 89.5763L12.7113 92.6011C12.3981 92.7054 12.2937 92.7576 12.2937 93.1748V96.13C12.2937 96.1648 12.3285 96.1995 12.3633 96.1995C13.5115 96.2517 14.451 97.2252 14.451 98.4247C14.451 99.6241 13.5289 100.615 12.3633 100.65C12.3285 100.65 12.2937 100.685 12.2937 100.719V104.353C12.2937 104.387 12.3285 104.422 12.3633 104.422C14.1726 104.109 27.6727 101.832 37.6934 100.146C37.85 100.111 38.0065 100.094 38.1631 100.059C38.1979 100.059 38.2153 100.024 38.2153 99.9892C38.1631 99.7806 38.1457 99.5546 38.1457 99.3286C38.1457 97.625 39.5723 96.2343 41.3468 96.2343C42.9647 96.2343 44.3043 97.399 44.513 98.9288C44.513 98.9636 44.5478 98.9983 44.5826 98.9809C45.6264 98.8071 46.4267 98.668 46.9138 98.5811C46.9486 98.5811 46.966 98.5463 46.966 98.5116C46.966 98.3551 46.966 98.0944 46.966 97.7467C46.9834 95.539 47.0356 89.6806 47.0356 87.3338C47.0356 87.1948 47.0182 87.0557 46.9834 86.9166C47.0008 86.9166 46.966 86.8992 46.9312 86.8992Z" fill="#FFC964"/>
<path d="M13.8593 91.1756L30.9432 88.342C30.9606 88.342 30.978 88.3246 30.9954 88.3073C31.4999 87.3685 32.5263 87.1425 33.2918 87.0382C33.4309 87.0209 33.5875 87.0035 33.7267 87.0035C34.4052 87.0035 35.0663 87.1947 35.5882 87.5424C35.6056 87.5598 35.623 87.5598 35.6404 87.5598L45.9046 85.8561L46.3221 85.7866C46.3395 85.7171 46.3395 85.7345 46.3569 85.6823C45.3305 84.6045 44.2519 83.6832 43.1733 82.8835C43.1559 82.8661 43.1211 82.8661 43.1037 82.8835C42.6166 83.1791 42.0077 83.3529 41.3292 83.3529C39.7287 83.3529 38.4761 82.3794 38.4761 81.1452C38.4761 80.867 38.5457 80.6063 38.6501 80.3629C38.6675 80.3281 38.6501 80.2934 38.6153 80.276C34.8923 78.6767 31.4129 78.3464 29.1339 78.3464C28.9251 78.3464 28.7512 78.3985 28.6468 78.4854C28.4902 78.6245 22.0707 84.0482 20.0526 85.7866C19.9657 85.8561 20.0352 85.9257 20.07 85.9605C20.4528 86.3081 20.6615 86.7427 20.6615 87.2121C20.6615 87.9596 20.1048 88.6375 19.1828 89.0026C18.7305 89.1764 18.1912 89.2807 17.6692 89.2807C17.2169 89.2807 16.7472 89.2112 16.3471 89.0721C16.3297 89.0721 16.2253 89.0548 16.1905 89.0895C16.1383 89.1417 15.9991 89.246 15.7904 89.4198C15.3902 89.7501 14.4508 90.515 13.7897 91.0713C13.7549 91.106 13.7897 91.193 13.8593 91.1756ZM28.7338 81.7884C30.3343 81.7884 31.5869 82.7618 31.5869 83.9961C31.5869 85.2303 30.3343 86.2038 28.7338 86.2038C27.1332 86.2038 25.8806 85.2303 25.8806 83.9961C25.8806 82.7618 27.1332 81.7884 28.7338 81.7884Z" fill="#FFE183"/>
<path d="M23.0102 93.2443C21.8967 93.2443 20.9921 94.1135 20.9921 95.1565C20.9921 96.2169 21.8967 97.0687 23.0102 97.0687C24.1236 97.0687 25.0282 96.1995 25.0282 95.1565C25.0282 94.1135 24.1236 93.2443 23.0102 93.2443Z" fill="#F3A334"/>
<path d="M21.8272 95.1738C21.8272 94.2525 22.523 93.4876 23.4277 93.2964C23.2885 93.2616 23.1493 93.2616 23.0102 93.2616C21.8967 93.2616 20.9921 94.1308 20.9921 95.1738C20.9921 96.2342 21.8967 97.086 23.0102 97.086C23.1493 97.086 23.2885 97.0687 23.4277 97.0513C22.5056 96.8601 21.8272 96.0952 21.8272 95.1738Z" fill="#E87E04"/>
<path d="M33.7268 88.203C33.6224 88.203 33.5354 88.203 33.431 88.2204C32.3176 88.3595 32.0566 88.7072 31.9523 89.0549C31.9001 89.2287 31.8827 89.2808 31.8827 89.6111C31.8827 90.602 32.7177 91.4017 33.7268 91.4017C34.7532 91.4017 35.5708 90.602 35.5708 89.6111C35.5708 89.1418 35.3099 88.8289 35.0837 88.655C34.7532 88.3595 34.2487 88.203 33.7268 88.203Z" fill="#FFC964"/>
<path d="M32.7873 89.472C32.7873 89.0026 32.9613 88.5681 33.257 88.2378C32.3002 88.3942 32.0566 88.7071 31.9523 89.0374C31.9001 89.2113 31.8827 89.2634 31.8827 89.5937C31.8827 90.5846 32.7177 91.3842 33.7268 91.3842C33.9181 91.3842 34.0921 91.3495 34.2487 91.3147C33.4136 91.0887 32.7873 90.3412 32.7873 89.472Z" fill="#F3A334"/>
<path d="M28.7337 85.0218C29.621 85.0218 30.4212 84.535 30.4212 83.9961C30.4212 83.5094 29.7254 82.9705 28.7337 82.9705C27.7421 82.9705 27.0462 83.5094 27.0462 83.9961C27.0462 84.535 27.8291 85.0218 28.7337 85.0218Z" fill="#FFC964"/>
<path d="M47.2616 84.9348C46.2352 83.857 45.1392 82.8835 43.9562 82.0143C43.7822 81.8926 43.6256 81.7709 43.4517 81.6492C43.2255 81.4928 42.9297 81.5275 42.721 81.7188C42.547 81.8752 42.2861 82.0143 42.0077 82.1012C41.7989 82.1534 41.5728 82.1881 41.3292 82.1881C40.442 82.1881 39.6417 81.7014 39.6417 81.1625C39.6417 81.0408 39.6765 80.9365 39.7461 80.8148C39.8505 80.6584 40.007 80.5193 40.2158 80.3976C40.4768 80.2585 40.4594 79.8761 40.181 79.737C39.9723 79.6327 39.7461 79.5284 39.5199 79.4241C38.5109 78.9721 37.4671 78.5723 36.3711 78.242C34.0399 77.5467 31.5869 77.1816 29.1513 77.1816C28.6642 77.1816 28.2119 77.3207 27.8987 77.5988C27.7595 77.7205 20.331 84.0134 18.8697 85.2477C18.7305 85.3693 18.6087 85.5084 18.5391 85.6301C18.3478 85.9778 18.5217 86.3776 18.8697 86.5514C19.2524 86.7253 19.4438 87.0034 19.4438 87.2294C19.4438 87.4728 19.2176 87.7162 18.7653 87.89C18.4347 88.0117 18.0694 88.0812 17.6867 88.0812C17.3561 88.0812 17.0256 88.0291 16.7298 87.9421C16.7298 87.9421 16.4689 87.8378 16.2601 87.8378C15.9818 87.8378 15.7034 87.9595 15.4425 88.1681C15.3903 88.2029 15.2511 88.3246 15.0597 88.481C13.5462 89.7327 12.485 90.6192 12.224 90.9321C11.8935 91.3146 11.7021 91.6275 11.6325 91.7318C11.4933 91.9056 11.1106 92.5141 11.1106 93.4876V96.5123C11.1106 97.1208 11.5107 97.3989 11.9283 97.3989C12.0152 97.3989 12.0848 97.3815 12.1196 97.3815H12.137C12.1718 97.3815 12.224 97.3815 12.2588 97.3815C12.7981 97.3815 13.2504 97.8509 13.2504 98.4419C13.2504 99.033 12.7981 99.5023 12.2588 99.5023C12.224 99.5023 12.1892 99.5023 12.1544 99.5023C12.1196 99.5023 12.0848 99.5023 12.0326 99.5023C11.5803 99.5023 11.1106 99.8326 11.1106 100.406V104.613C11.1106 105.204 11.5629 105.674 12.1544 105.674C12.224 105.674 12.2936 105.674 12.3632 105.656C12.7981 105.587 27.8987 103.031 37.8846 101.362C38.1804 101.31 38.4761 101.258 38.7545 101.223H38.7893C39.3286 101.136 39.6243 100.563 39.4329 100.059C39.4155 100.024 39.3982 99.9717 39.3808 99.9369C39.3286 99.7631 39.2938 99.5892 39.2938 99.4154C39.2938 98.355 40.1984 97.5032 41.3118 97.5032C42.373 97.5032 43.2429 98.2855 43.3299 99.2763C43.3299 99.3285 43.3299 99.3633 43.3299 99.4154V99.4328C43.3299 99.9717 43.817 100.389 44.3389 100.285H44.3737C45.7133 100.059 46.7223 99.8848 47.2268 99.7978C47.6269 99.7283 48.1141 99.5023 48.1141 98.7548C48.1141 98.7201 48.1141 98.3898 48.1141 97.8509C48.1315 95.6431 48.1836 89.7674 48.1836 87.4206C48.1836 86.7948 47.9575 86.1864 47.9053 86.0647C47.9053 85.8909 47.6965 85.3867 47.2616 84.9348ZM13.8071 91.0712C14.4682 90.4976 15.4077 89.7327 15.8078 89.4198C16.0166 89.2459 16.1557 89.1242 16.2079 89.0895C16.2427 89.0721 16.3471 89.0721 16.3645 89.0721C16.7646 89.2112 17.2343 89.2807 17.6867 89.2807C18.226 89.2807 18.7479 89.1764 19.2002 89.0026C20.1223 88.6201 20.679 87.9595 20.679 87.1946C20.679 86.7253 20.4702 86.3081 20.0875 85.943C20.0527 85.9082 19.9831 85.8387 20.0701 85.7692C22.1055 84.0482 28.5076 78.6071 28.6642 78.468C28.7686 78.3811 28.9425 78.3289 29.1513 78.3289C31.4129 78.3289 34.8923 78.6592 38.6327 80.2585C38.6675 80.2759 38.6849 80.3107 38.6675 80.3454C38.5457 80.5888 38.4935 80.8496 38.4935 81.1277C38.4935 82.362 39.7461 83.3355 41.3466 83.3355C42.0251 83.3355 42.634 83.1616 43.1211 82.8661C43.1385 82.8487 43.1733 82.8487 43.1907 82.8661C44.2693 83.6657 45.3305 84.5871 46.3744 85.6649C46.357 85.7344 46.357 85.717 46.3396 85.7692L45.9046 85.8735L35.6404 87.5771C35.623 87.5771 35.6056 87.5771 35.5882 87.5597C35.0663 87.212 34.4052 87.0208 33.7267 87.0208C33.5702 87.0208 33.431 87.0382 33.2918 87.0556C32.5263 87.1599 31.4825 87.3859 30.9954 88.3246C30.978 88.342 30.978 88.3594 30.9432 88.3594L13.8593 91.1755C13.7897 91.1929 13.7549 91.106 13.8071 91.0712ZM35.1011 88.6549C35.3272 88.8287 35.5882 89.1416 35.5882 89.611C35.5882 90.6019 34.7531 91.4015 33.7441 91.4015C32.7177 91.4015 31.9 90.6019 31.9 89.611C31.9 89.2807 31.9174 89.2285 31.9696 89.0547C32.074 88.707 32.335 88.3594 33.4484 88.2203C33.5528 88.2029 33.6397 88.2029 33.7441 88.2029C34.2486 88.2029 34.7531 88.3594 35.1011 88.6549ZM46.9833 97.764C46.9833 98.1116 46.9833 98.3724 46.9833 98.5288C46.9833 98.5636 46.9659 98.581 46.9311 98.5984C46.4439 98.6853 45.6437 98.8244 44.5999 98.9982C44.5651 98.9982 44.5303 98.9808 44.5303 98.946C44.3215 97.4337 42.9819 96.2516 41.364 96.2516C39.6069 96.2516 38.163 97.6423 38.163 99.3459C38.163 99.5719 38.1978 99.7805 38.2325 100.006C38.2325 100.041 38.2152 100.076 38.1804 100.076C38.0238 100.111 37.8672 100.128 37.7106 100.163C27.7074 101.849 14.1899 104.126 12.3806 104.439C12.3458 104.439 12.311 104.422 12.311 104.37V100.737C12.311 100.702 12.3458 100.667 12.3806 100.667C13.5288 100.615 14.4682 99.6414 14.4682 98.4419C14.4682 97.2424 13.5462 96.2516 12.3806 96.2168C12.3458 96.2168 12.311 96.182 12.311 96.1473V93.1746C12.311 92.7574 12.4154 92.7053 12.7285 92.601L30.6475 89.5936C30.6822 89.6284 30.6822 89.6284 30.717 89.6631C30.7518 91.2624 32.0914 92.5662 33.7441 92.5662C35.4142 92.5662 36.7712 91.2451 36.7712 89.611C36.7712 89.159 36.6494 88.8287 36.5798 88.6896C36.5624 88.6549 36.5798 88.6027 36.632 88.6027L46.1134 87.0382L46.9485 86.9165C46.9833 86.9165 47.018 86.9339 47.018 86.9687C47.0528 87.1077 47.0702 87.2468 47.0702 87.3859C47.0528 89.6979 47.0006 95.5562 46.9833 97.764Z" fill="#323063"/>
<path d="M28.7339 86.1865C30.3344 86.1865 31.587 85.213 31.587 83.9787C31.587 82.7445 30.3344 81.771 28.7339 81.771C27.1333 81.771 25.8808 82.7445 25.8808 83.9787C25.8808 85.213 27.1333 86.1865 28.7339 86.1865ZM28.7339 82.9531C29.7255 82.9531 30.4214 83.492 30.4214 83.9787C30.4214 84.5176 29.6385 85.0044 28.7339 85.0044C27.8466 85.0044 27.0464 84.5176 27.0464 83.9787C27.0464 83.5094 27.7422 82.9531 28.7339 82.9531Z" fill="#323063"/>
<path d="M23.0103 92.0795C21.2532 92.0795 19.8093 93.4702 19.8093 95.1738C19.8093 96.8774 21.2358 98.2681 23.0103 98.2681C24.7674 98.2681 26.2114 96.8774 26.2114 95.1738C26.2114 93.4702 24.7674 92.0795 23.0103 92.0795ZM23.0103 97.086C21.8969 97.086 20.9923 96.2169 20.9923 95.1738C20.9923 94.1134 21.8969 93.2616 23.0103 93.2616C24.1237 93.2616 25.0284 94.1308 25.0284 95.1738C25.0284 96.2342 24.1237 97.086 23.0103 97.086Z" fill="#323063"/>
<path d="M27.6899 83.7354C27.6899 83.4746 27.8813 83.2139 28.2118 83.0053C27.5159 83.1443 27.0462 83.5789 27.0462 83.9788C27.0462 84.5177 27.8291 85.0044 28.7337 85.0044C29.1687 85.0044 29.5862 84.8827 29.8993 84.7089C29.7254 84.7437 29.5514 84.761 29.3774 84.761C28.4728 84.761 27.6899 84.2917 27.6899 83.7354Z" fill="#F3A334"/>
<path d="M12.3458 100.684C12.311 100.684 12.2762 100.719 12.2762 100.754V104.387C12.2762 104.422 12.311 104.457 12.3458 104.457C12.6068 104.422 13.0939 104.335 13.755 104.213V100.059C13.4071 100.406 12.9025 100.65 12.3458 100.684Z" fill="#F3A334"/>
<path d="M12.7113 92.6183C12.3981 92.7226 12.2937 92.7748 12.2937 93.192V96.1472C12.2937 96.182 12.3285 96.2168 12.3633 96.2168C12.92 96.2342 13.4245 96.4775 13.7899 96.86V92.4445L12.7113 92.6183Z" fill="#F3A334"/>
<path d="M29.1516 78.3637C28.9428 78.3637 28.7688 78.4159 28.6645 78.5028C28.5079 78.6418 22.0884 84.0656 20.0703 85.8039C19.9833 85.8735 20.0529 85.943 20.0877 85.9778C20.3139 86.1864 20.4879 86.4124 20.5748 86.6731L30.3172 78.3985C29.8996 78.3811 29.5169 78.3637 29.1516 78.3637Z" fill="#F3A334"/>
<path d="M16.3646 89.0721C16.3472 89.0721 16.2428 89.0547 16.208 89.0895C16.1558 89.1416 16.0166 89.2459 15.8079 89.4198C15.4077 89.75 14.4683 90.5149 13.8072 91.0712C13.755 91.106 13.7898 91.1929 13.8594 91.1929L15.5817 90.9148L17.5128 89.2807C17.1126 89.2633 16.7125 89.1938 16.3646 89.0721Z" fill="#F3A334"/>
<path d="M29.6624 66.0174C28.9859 66.0174 28.3095 66.0174 27.633 66.114C40.6787 67.177 51.0187 78.0967 51.0187 91.4324C51.0187 104.768 40.7754 115.688 27.633 116.751C28.3095 116.847 28.9859 116.847 29.6624 116.847C43.6744 116.847 55.0774 105.444 55.0774 91.4324C55.0774 77.4203 43.6744 66.0174 29.6624 66.0174Z" fill="#CA4B21"/>
<path d="M88.8346 116.828C102.871 116.828 114.249 105.449 114.249 91.4136C114.249 77.3777 102.871 65.9993 88.8346 65.9993C74.7987 65.9993 63.4203 77.3777 63.4203 91.4136C63.4203 105.449 74.7987 116.828 88.8346 116.828Z" fill="#F3BA2F"/>
<path d="M82.6653 88.8786L88.8346 82.7093L95.007 88.8818L98.5968 85.2921L88.8346 75.5298L79.0755 85.2889L82.6653 88.8786ZM72.9507 91.4137L76.5404 87.8239L80.1302 91.4137L76.5404 95.0035L72.9507 91.4137ZM82.6653 93.9488L88.8346 100.118L95.007 93.9456L98.5968 97.5338L88.8346 107.298L79.0755 97.5385L79.0707 97.5338L82.6653 93.9488ZM97.5389 91.4137L101.129 87.8239L104.718 91.4137L101.129 95.0035L97.5389 91.4137ZM92.4752 91.4105H92.4783V91.4137L88.8346 95.0575L85.1956 91.4201L85.1892 91.4137L85.1956 91.4089L85.8325 90.7704L86.1422 90.4607L88.8346 87.7699L92.4767 91.4121L92.4752 91.4105Z" fill="white"/>
<path d="M88.8338 66.0715C88.1574 66.0715 87.4809 66.0715 86.8045 66.1682C99.8502 67.2312 110.19 78.1509 110.19 91.4865C110.19 104.822 99.9469 115.742 86.8045 116.805C87.4809 116.902 88.1574 116.902 88.8338 116.902C102.846 116.902 114.249 105.499 114.249 91.4865C114.249 77.4745 102.846 66.0715 88.8338 66.0715Z" fill="#ECA907"/>
</svg>
