<svg width="178" height="200" viewBox="0 0 178 200" fill="none" xmlns="http://www.w3.org/2000/svg">
<path style="mix-blend-mode:multiply" opacity="0.5" d="M164.34 157.267L163.807 157.051C163.076 156.765 162.364 156.501 161.688 156.289C161.917 155.971 162.136 155.625 162.361 155.291C162.704 154.786 163.054 154.291 163.384 153.776C163.902 152.979 164.394 152.159 164.89 151.339C165.147 150.914 165.417 150.498 165.668 150.069C166.403 148.798 167.111 147.509 167.793 146.2C168.475 144.891 169.129 143.543 169.756 142.156C169.995 141.635 170.201 141.108 170.43 140.568C170.792 139.732 171.16 138.9 171.494 138.058C171.761 137.382 171.999 136.702 172.247 136.022C172.494 135.342 172.771 134.637 173.009 133.942C173.266 133.186 173.492 132.423 173.73 131.661C173.924 131.025 174.13 130.416 174.311 129.79C174.543 128.977 174.747 128.16 174.947 127.344C175.093 126.769 175.264 126.197 175.388 125.622C175.588 124.764 175.76 123.904 175.935 123.046C176.043 122.509 176.163 121.969 176.252 121.432C176.414 120.549 176.548 119.666 176.684 118.78C176.764 118.262 176.853 117.741 176.923 117.223C177.043 116.331 177.135 115.435 177.24 114.542C177.278 114.158 177.336 113.777 177.37 113.392C178.435 101.44 177.074 89.3953 173.369 77.9815C169.664 66.5678 163.692 56.02 155.811 46.9708L155.83 46.9549C155.576 46.6659 155.306 46.3895 155.052 46.1036C154.614 45.6144 154.17 45.1284 153.721 44.6456C153.206 44.096 152.679 43.5528 152.149 43.016C151.688 42.5491 151.224 42.0821 150.754 41.6247C150.205 41.091 149.642 40.5701 149.08 40.0364C148.6 39.5949 148.127 39.1501 147.628 38.7181C147.041 38.2004 146.437 37.6985 145.834 37.1966C145.341 36.7836 144.852 36.3707 144.347 35.9704C143.712 35.4622 143.057 34.973 142.406 34.4838C141.908 34.109 141.415 33.7278 140.907 33.3593C140.211 32.8574 139.493 32.3746 138.779 31.8917C138.293 31.5741 137.826 31.2215 137.317 30.9007C136.504 30.3733 135.669 29.8715 134.833 29.3664C134.411 29.1123 134.001 28.8454 133.563 28.5977C132.292 27.8586 130.995 27.146 129.671 26.4598C128.985 26.1072 128.293 25.7864 127.603 25.4529C127.857 24.9896 128.07 24.5049 128.239 24.0044C128.941 22.1651 129.208 20.1883 129.019 18.2287C128.83 16.269 128.19 14.3797 127.149 12.7086C126.153 11.2742 124.795 10.1285 123.214 9.38719C121.633 8.64589 119.884 8.33533 118.144 8.48693C117.309 8.49277 116.476 8.55645 115.65 8.67752C111.752 9.21523 107.985 10.4585 104.532 12.3464C104.554 11.9811 104.564 11.6031 104.561 11.2156C104.612 9.22459 104.191 7.24976 103.333 5.45265C102.474 3.65554 101.202 2.0872 99.6213 0.875917C99.3992 0.706952 99.1416 0.590746 98.8679 0.536098C98.5942 0.48145 98.3117 0.489792 98.0418 0.560496C97.7718 0.631201 97.5215 0.762414 97.3097 0.944193C97.098 1.12597 96.9304 1.35356 96.8196 1.6097C95.7663 4.16509 94.1785 6.46556 92.1628 8.35669C91.8016 7.89381 91.3379 7.52116 90.8082 7.26813C90.2784 7.0151 89.6971 6.88862 89.1101 6.89865C88.821 6.90095 88.5327 6.93073 88.2493 6.9876C88.3128 6.88912 88.3763 6.80018 88.4367 6.71441C88.7075 6.31853 88.8282 5.83897 88.777 5.36204C88.7257 4.8851 88.5059 4.44212 88.1571 4.11282C87.5072 3.4781 86.6355 3.12147 85.7271 3.11856C85.0774 3.15866 84.4423 3.32827 83.8592 3.61739C83.276 3.90651 82.7565 4.30932 82.3313 4.80213V4.74177C82.409 4.46159 82.4207 4.16724 82.3656 3.88178C82.3105 3.59631 82.19 3.32748 82.0137 3.09632C81.7742 2.80721 81.4707 2.57778 81.1272 2.42617C80.7837 2.27456 80.4097 2.20493 80.0347 2.22277C77.8111 2.22277 75.003 4.37012 73.275 10.0085L72.7985 9.88778C68.7992 8.85541 66.1278 3.39174 65.3908 1.73994C65.2777 1.48483 65.1081 1.25881 64.8947 1.07898C64.6813 0.899144 64.4298 0.770218 64.1593 0.701963C63.8887 0.633709 63.6062 0.627911 63.333 0.685017C63.0599 0.742122 62.8033 0.860631 62.5827 1.03157C61.0142 2.25851 59.7576 3.83854 58.9152 5.64302C58.0729 7.4475 57.6686 9.42542 57.7353 11.4157C57.7353 11.8064 57.7353 12.1876 57.7766 12.5561C54.3123 10.7013 50.5398 9.49146 46.6428 8.98564C45.8165 8.87198 44.9833 8.81573 44.1492 8.81729C42.4082 8.68116 40.662 9.0072 39.0874 9.76244C37.5128 10.5177 36.1655 11.6753 35.1818 13.1183C34.156 14.7987 33.5329 16.6938 33.3615 18.6551C33.1901 20.6164 33.475 22.5908 34.1939 24.4237C34.6151 25.9203 35.4849 27.252 36.6862 28.2391C37.8874 29.2262 39.3624 29.8214 40.9123 29.9445C41.3277 29.9365 41.741 29.8833 42.1448 29.7857C38.2963 32.1742 34.6367 34.8546 31.1985 37.8033C30.9062 38.0511 30.6267 38.3211 30.3376 38.572C29.6578 39.166 28.9812 39.7601 28.3205 40.3763C27.9425 40.7289 27.574 41.0974 27.1992 41.4563C26.5639 42.0916 25.9031 42.7079 25.271 43.3623C24.893 43.7498 24.5309 44.1532 24.1592 44.5471C23.5525 45.1824 22.9458 45.8336 22.3581 46.5007C21.9706 46.939 21.5989 47.3933 21.2209 47.8412C20.6714 48.4765 20.1186 49.1309 19.585 49.7948C19.1784 50.2998 18.794 50.8271 18.3969 51.3449C17.9141 51.9802 17.4218 52.6155 16.9516 53.2508C16.4815 53.8862 16.1003 54.4833 15.681 55.0996C15.2617 55.7158 14.8646 56.2654 14.4739 56.8658C13.9752 57.6345 13.5019 58.4254 13.0222 59.2132C12.7332 59.6929 12.4282 60.1662 12.1455 60.6427C11.3959 61.9302 10.6737 63.2432 9.97911 64.5816C9.28451 65.92 8.64178 67.2425 8.05094 68.5491C7.84129 69.0097 7.65386 69.4798 7.45056 69.9436C7.06938 70.814 6.69137 71.6844 6.33878 72.5579C6.11007 73.1265 5.90678 73.7015 5.70348 74.2732C5.41124 75.0483 5.11898 75.8234 4.84897 76.6048C4.63614 77.2401 4.44239 77.8564 4.24227 78.4822C4.0072 79.216 3.7753 79.9466 3.5593 80.6803C3.36871 81.3411 3.194 82.0018 3.01612 82.6657C2.83823 83.3296 2.64444 84.0697 2.47608 84.7749C2.30773 85.4801 2.15844 86.1504 2.01232 86.8397C1.8662 87.529 1.72324 88.2088 1.593 88.8981C1.46277 89.5874 1.33571 90.3053 1.22136 91.0073C1.107 91.7093 1.00853 92.3542 0.903709 93.0308C0.798883 93.7074 0.709946 94.457 0.627355 95.1718C0.59559 95.4449 0.551105 95.7213 0.519339 95.9945H0.541587C-0.728189 108.069 0.483279 120.275 4.10163 131.865C7.71999 143.454 13.6689 154.181 21.583 163.388C21.834 163.68 22.104 163.96 22.3613 164.249C22.8981 164.859 23.4381 165.462 23.994 166.06C24.407 166.501 24.8326 166.933 25.2647 167.368C25.8269 167.946 26.3892 168.521 26.9673 169.087C27.4184 169.525 27.8853 169.951 28.3459 170.383C28.924 170.92 29.499 171.46 30.093 171.971C30.5917 172.41 31.1063 172.835 31.6146 173.264C32.1991 173.756 32.7772 174.252 33.3776 174.732C33.9779 175.211 34.5116 175.605 35.0802 176.037C35.6488 176.469 36.2269 176.923 36.8178 177.349C37.4531 177.81 38.117 178.251 38.7713 178.696C39.3209 179.071 39.8577 179.455 40.4168 179.817C41.2046 180.329 42.0051 180.815 42.8214 181.304C43.2725 181.577 43.7109 181.863 44.1715 182.13C45.4527 182.875 46.7593 183.593 48.0913 184.283C49.4234 184.974 50.7639 185.625 52.1129 186.237C52.5925 186.456 53.0658 186.647 53.5582 186.856C54.4285 187.234 55.2989 187.619 56.1757 187.968C56.7887 188.213 57.405 188.426 58.018 188.654C58.7677 188.934 59.5174 189.22 60.2702 189.477C60.9563 189.712 61.6457 189.919 62.335 190.135C63.0243 190.351 63.7072 190.576 64.3934 190.77C65.1303 190.983 65.8736 191.167 66.617 191.361C67.2523 191.526 67.8876 191.701 68.5419 191.853C69.3139 192.037 70.0889 192.193 70.8672 192.355C71.2643 192.438 71.6581 192.536 72.0552 192.612C73.5418 196.459 75.0158 199.283 76.2483 199.747C77.2117 199.971 78.2048 200.039 79.1897 199.947C81.0373 199.859 82.8785 199.666 84.7042 199.369C86.7358 199.265 88.7144 198.684 90.4792 197.673C90.8469 196.55 91.0366 195.376 91.0414 194.194C97.9699 194.022 104.854 193.041 111.556 191.272C111.587 191.364 111.622 191.434 111.654 191.523C111.775 191.84 111.892 192.158 112.01 192.431C112.061 192.555 112.111 192.67 112.165 192.784C112.28 193.038 112.391 193.27 112.499 193.48C112.54 193.559 112.585 193.645 112.626 193.718C112.751 193.95 112.898 194.17 113.064 194.375C114.408 194.796 115.837 194.861 117.213 194.563C119.433 194.351 121.636 193.996 123.811 193.502C125.033 193.294 126.214 192.887 127.305 192.298C127.635 191.999 127.885 191.622 128.032 191.202C128.055 191.148 128.074 191.078 128.096 191.021C128.178 190.808 128.261 190.589 128.337 190.332C128.382 190.186 128.42 190.014 128.461 189.849C128.502 189.684 128.56 189.483 128.607 189.274C128.664 189.017 128.715 188.731 128.766 188.448C128.792 188.311 128.82 188.187 128.842 188.041C128.903 187.682 128.957 187.295 129.011 186.904C129.011 186.818 129.036 186.742 129.046 186.656C129.135 185.98 129.208 185.249 129.278 184.49C135.899 181.122 142.071 176.934 147.648 172.025V172.041C147.857 171.857 148.054 171.66 148.261 171.476C148.467 171.291 148.702 171.098 148.918 170.901C150.317 171.863 151.953 172.423 153.648 172.521C159.683 172.876 166.167 167.892 169.794 164.56L169.813 164.541C171.592 162.905 172.672 161.682 172.672 161.682L172.298 161.444C171.481 160.929 170.693 160.456 169.921 160.011L169.286 159.646C168.416 159.16 167.568 158.693 166.745 158.312L166.621 158.255C165.817 157.893 165.068 157.559 164.34 157.267Z" fill="url(#paint0_linear)"/>
<path d="M125.299 25.0216C110.555 17.3999 93.8824 14.3214 77.389 16.1752C60.8955 18.029 45.3222 24.732 32.6381 35.4365C19.9541 46.1409 10.729 60.3662 6.12949 76.3134C1.52994 92.2607 1.76246 109.214 6.79765 125.029C11.8328 140.844 21.4445 154.811 34.4174 165.163C47.3902 175.516 63.1416 181.789 79.6797 183.19C96.2178 184.591 112.8 181.056 127.329 173.033C141.858 165.01 153.682 152.859 161.306 138.116C166.368 128.326 169.452 117.634 170.383 106.652C171.313 95.6704 170.071 84.6127 166.727 74.1108C163.383 63.6088 158.004 53.8683 150.896 45.4456C143.787 37.0228 135.09 30.0827 125.299 25.0216ZM70.7219 130.551C64.593 127.382 59.5416 122.466 56.2065 116.425C52.8715 110.385 51.4025 103.491 51.9854 96.6155C52.5683 89.7401 55.1769 83.192 59.4812 77.7992C63.7856 72.4063 69.5925 68.411 76.1675 66.3183C82.7425 64.2257 89.7905 64.1297 96.42 66.0426C103.05 67.9555 108.963 71.7913 113.413 77.065C117.862 82.3386 120.648 88.8133 121.418 95.6702C122.188 102.527 120.907 109.458 117.738 115.588C115.633 119.657 112.748 123.273 109.247 126.228C105.745 129.183 101.696 131.419 97.3297 132.809C92.9638 134.199 88.3669 134.715 83.8015 134.328C79.2361 133.941 74.7917 132.659 70.7219 130.554V130.551Z" fill="#F4E1D9"/>
<path d="M55.7612 83.5389C57.8887 79.4125 60.8209 75.7539 64.3848 72.7788L32.2548 35.7279C15.943 49.6827 5.57958 69.3427 3.28442 90.6862L52.0945 95.4871C52.5859 91.3157 53.8281 87.2677 55.7612 83.5389Z" fill="#3C9AF7"/>
<path d="M117.738 115.59C115.811 119.324 113.224 122.679 110.101 125.492L142.237 162.548C158.329 148.339 168.384 128.518 170.344 107.14L121.536 102.339C121.167 106.965 119.875 111.471 117.738 115.59Z" fill="#3C9AF7"/>
<path d="M125.299 25.0213C115.933 20.1635 105.733 17.1205 95.2368 16.0526L90.4359 64.8627C99.1279 65.7972 107.156 69.9502 112.94 76.5049L149.994 44.3689C143.055 36.4212 134.677 29.8568 125.299 25.0213Z" fill="#3C9AF7"/>
<path d="M78.7814 183.125L83.5823 134.318C74.5157 133.484 66.1314 129.149 60.2109 122.232L23.166 154.365C37.3155 170.747 57.2339 181.048 78.7814 183.125Z" fill="#3C9AF7"/>
<g style="mix-blend-mode:overlay" opacity="0.2">
<g style="mix-blend-mode:overlay" opacity="0.2">
<path d="M112.331 47.8291C102.198 42.5884 90.7389 40.47 79.402 41.7418C68.0652 43.0136 57.36 47.6184 48.6401 54.974C39.9202 62.3295 33.5771 72.1056 30.413 83.0659C27.2488 94.0263 27.4057 105.679 30.8637 116.55C34.3217 127.421 40.9256 137.023 49.8403 144.141C58.7551 151.259 69.5803 155.574 80.9473 156.541C92.3143 157.507 103.712 155.081 113.701 149.569C123.689 144.058 131.819 135.708 137.062 125.577C140.544 118.848 142.667 111.499 143.309 103.95C143.951 96.4012 143.099 88.7996 140.803 81.5797C138.506 74.3598 134.81 67.6631 129.924 61.872C125.039 56.081 119.061 51.3092 112.331 47.8291ZM69.8073 130.044C63.6784 126.875 58.627 121.959 55.292 115.918C51.9569 109.878 50.488 102.984 51.0708 96.1087C51.6537 89.2333 54.2623 82.6852 58.5667 77.2923C62.871 71.8995 68.6779 67.9041 75.2529 65.8115C81.828 63.7188 88.8759 63.6229 95.5055 65.5357C102.135 67.4486 108.049 71.2844 112.498 76.5581C116.948 81.8318 119.734 88.3064 120.503 95.1634C121.273 102.02 119.992 108.952 116.823 115.081C114.719 119.151 111.834 122.767 108.333 125.723C104.832 128.678 100.782 130.915 96.4165 132.305C92.0506 133.696 87.4535 134.213 82.8879 133.826C78.3222 133.44 73.8774 132.158 69.8073 130.053V130.044Z" fill="black"/>
</g>
</g>
<path d="M57.6129 102.665L51.5547 80.1611C44.9689 82.3704 38.9321 85.9635 33.8498 90.6989C28.7676 95.4344 24.7576 101.203 22.0892 107.616C21.5815 108.752 21.17 109.928 20.859 111.133C20.2602 112.889 20.1097 114.766 20.4209 116.595C20.7322 118.424 21.4954 120.146 22.6413 121.605C23.655 122.872 25.0805 123.744 26.6702 124.069C28.2599 124.394 29.9133 124.152 31.3429 123.384C33.0588 122.245 34.5856 120.843 35.8678 119.231C41.3438 112.975 48.4221 102.737 57.6129 102.665Z" fill="white"/>
<path d="M35.8798 119.231C35.5861 117.538 34.946 115.924 33.9996 114.491C33.0532 113.057 31.8208 111.834 30.3798 110.898C27.9074 109.177 25.0696 108.052 22.0892 107.613C21.5815 108.749 21.17 109.925 20.859 111.129C20.2602 112.885 20.1097 114.763 20.4209 116.592C20.7322 118.42 21.4954 120.143 22.6413 121.601C23.655 122.868 25.0805 123.74 26.6702 124.065C28.2599 124.39 29.9133 124.148 31.3429 123.381C33.0628 122.243 34.5937 120.843 35.8798 119.231Z" fill="#686868"/>
<g opacity="0.5">
<path opacity="0.5" d="M32.9093 113.113L32.9364 113.158C33.5427 114.224 33.7681 115.465 33.5756 116.676C33.3831 117.887 32.7841 118.997 31.8772 119.823C31.2664 120.407 30.5897 120.919 29.8608 121.347C28.4555 122.108 26.8296 122.357 25.2607 122.053C23.6918 121.749 22.2772 120.91 21.2582 119.679C21.6095 120.392 22.077 121.042 22.6414 121.602C23.6551 122.869 25.0806 123.741 26.6703 124.066C28.26 124.391 29.9134 124.149 31.3431 123.381C33.0589 122.242 34.5857 120.84 35.8679 119.228C35.4923 116.947 34.4648 114.824 32.9093 113.113Z" fill="white"/>
</g>
<g opacity="0.3">
<path opacity="0.3" d="M57.6127 102.665L51.5546 80.1611C44.9688 82.3704 38.932 85.9635 33.8497 90.6989C28.7675 95.4344 24.7575 101.203 22.0891 107.616C21.5814 108.752 21.1699 109.928 20.8589 111.133C20.3028 112.819 20.1454 114.611 20.3989 116.368C20.6525 118.125 21.3101 119.8 22.3201 121.26V121.212C22.6312 120.007 23.0427 118.831 23.5504 117.695C27.0668 109.514 32.6393 102.382 39.7264 96.9913C41.1185 95.9514 42.7438 95.2679 44.4607 95.0005C46.1776 94.7331 47.9339 94.8898 49.5763 95.4571C51.2187 96.0244 52.6973 96.985 53.8831 98.255C55.069 99.5251 55.926 101.066 56.3795 102.743C56.7876 102.697 57.1987 102.671 57.6127 102.665Z" fill="#1A1A5A"/>
</g>
<path d="M113.909 94.4515L113.282 71.1521C120.225 71.3873 127.036 73.1053 133.26 76.1909C139.483 79.2764 144.974 83.6581 149.364 89.0414C150.175 89.9848 150.906 90.9945 151.548 92.06C152.624 93.5718 153.305 95.3285 153.53 97.1704C153.754 99.0124 153.514 100.881 152.833 102.607C152.225 104.115 151.107 105.361 149.674 106.129C148.241 106.896 146.584 107.137 144.992 106.808C143.022 106.202 141.159 105.29 139.471 104.107C132.435 99.6964 122.734 91.892 113.909 94.4515Z" fill="white"/>
<path d="M139.462 104.115C139.26 102.409 139.412 100.679 139.909 99.0346C140.406 97.3901 141.238 95.866 142.352 94.5578C144.229 92.2016 146.627 90.3128 149.358 89.0398C150.169 89.9831 150.9 90.9929 151.542 92.0584C152.618 93.5702 153.299 95.3269 153.523 97.1688C153.748 99.0107 153.508 100.88 152.827 102.605C152.218 104.113 151.101 105.359 149.668 106.127C148.235 106.895 146.578 107.135 144.986 106.806C143.015 106.203 141.151 105.295 139.462 104.115Z" fill="#686868"/>
<g opacity="0.5">
<path opacity="0.5" d="M140.566 97.4043V97.4553C140.29 98.6504 140.428 99.9041 140.959 101.01C141.489 102.116 142.38 103.008 143.486 103.54C144.237 103.931 145.032 104.234 145.853 104.441C147.417 104.768 149.046 104.542 150.462 103.803C151.878 103.063 152.994 101.854 153.619 100.384C153.486 101.168 153.225 101.924 152.845 102.622C152.237 104.13 151.119 105.376 149.686 106.144C148.253 106.912 146.596 107.152 145.004 106.823C143.034 106.217 141.171 105.306 139.483 104.123C139.187 101.826 139.563 99.492 140.566 97.4043Z" fill="white"/>
</g>
<g opacity="0.3">
<path opacity="0.3" d="M113.909 94.4515L113.282 71.1521C120.225 71.3873 127.036 73.1053 133.26 76.1909C139.483 79.2764 144.974 83.6581 149.364 89.0414C150.175 89.9848 150.906 90.9945 151.548 92.06C152.564 93.5165 153.229 95.1888 153.489 96.9455C153.749 98.7022 153.599 100.495 153.049 102.184L153.028 102.142C152.385 101.076 151.655 100.067 150.843 99.1233C145.137 92.2861 137.758 87.0413 129.425 83.8985C127.794 83.2996 126.041 83.109 124.319 83.3432C122.597 83.5775 120.959 84.2296 119.547 85.2426C118.135 86.2555 116.993 87.5986 116.219 89.1546C115.446 90.7106 115.065 92.4323 115.11 94.1694C114.707 94.2434 114.307 94.3374 113.909 94.4515Z" fill="#1A1A5A"/>
</g>
<path d="M86.5651 158.509C86.5651 158.509 87.7323 169.887 87.9033 178.192C88.1229 180.894 87.9204 183.613 87.3032 186.252C86.7631 187.428 75.9011 188.988 73.8607 188.214C72.5555 187.716 70.9652 184.442 69.3929 180.131C65.7922 170.256 62.2485 154.926 62.2485 154.926L86.5651 158.509Z" fill="white"/>
<path d="M87.9036 178.195C88.1232 180.896 87.9207 183.615 87.3035 186.255C86.7634 187.431 75.9014 188.991 73.861 188.217C72.5558 187.719 70.9655 184.445 69.3932 180.133C75.3749 178.272 81.666 177.613 87.9036 178.195Z" fill="#686868"/>
<g opacity="0.3">
<path opacity="0.3" d="M86.5681 158.509C86.5681 158.509 87.7353 169.887 87.9063 178.192C88.1259 180.894 87.9234 183.613 87.3062 186.252C86.7661 187.428 75.9041 188.988 73.8637 188.214C72.5585 187.716 70.9682 184.445 69.3959 180.134C69.2669 179.78 69.1378 179.419 69.0118 179.05C74.2898 185.796 79.7718 183.125 81.4131 179.741C82.3949 177.483 82.8701 175.039 82.8054 172.578C82.8038 171.033 82.1917 169.552 81.1025 168.456C80.0132 167.361 78.5351 166.74 76.9903 166.73C72.891 166.693 68.8102 166.174 64.832 165.185C63.2957 159.46 62.2485 154.923 62.2485 154.923L86.5681 158.509Z" fill="#1A1A5A"/>
</g>
<path d="M138.862 151.981C138.862 151.981 143.663 138.61 164.967 152.26C164.967 152.26 148.137 171.38 139.162 157.427L138.862 151.981Z" fill="#413757"/>
<g opacity="0.3">
<path opacity="0.3" d="M162.707 154.475C150.174 146.436 143.354 147.768 139.867 150.223C142.133 147.111 148.794 141.884 164.967 152.257C164.967 152.257 163.932 153.431 162.242 154.985C162.545 154.661 162.707 154.475 162.707 154.475Z" fill="white"/>
</g>
<g opacity="0.3">
<path opacity="0.3" d="M139.162 157.423L138.862 151.976C139.705 150.025 141.186 148.419 143.063 147.422C143.156 149.138 143.669 150.804 144.556 152.276C145.444 153.748 146.679 154.979 148.153 155.862C149.627 156.745 151.296 157.253 153.012 157.341C154.728 157.429 156.44 157.094 157.997 156.366C160.364 155.189 162.581 153.73 164.598 152.022L164.958 152.25C164.958 152.25 148.137 171.375 139.162 157.423Z" fill="#1A1A5A"/>
</g>
<path d="M125.783 130.822C125.783 130.822 122.782 143.352 132.324 148.993C136.634 151.4 141.49 152.659 146.427 152.648C146.786 152.677 147.125 152.826 147.39 153.071C147.655 153.316 147.83 153.642 147.888 153.998C147.945 154.354 147.882 154.719 147.708 155.035C147.534 155.351 147.259 155.6 146.928 155.741C146.855 155.773 146.78 155.799 146.703 155.819C144.902 156.284 123.736 161.298 117.828 140.339" fill="white"/>
<g opacity="0.3">
<path opacity="0.3" d="M117.822 140.336L125.783 130.822C125.554 131.898 125.416 132.992 125.368 134.092L121.672 138.509C126.518 155.687 141.619 155.42 147.891 154.505C147.854 154.778 147.744 155.036 147.575 155.253C147.405 155.469 147.18 155.637 146.924 155.738C146.851 155.769 146.776 155.795 146.699 155.816C144.911 156.278 123.733 161.283 117.822 140.336Z" fill="#1A1A5A"/>
</g>
<path d="M123.802 145.758C104.32 165.127 60.7906 169.523 49.9406 148.693C40.4648 130.476 49.1485 115.687 52.188 92.2611C52.9317 86.6251 53.2427 80.9405 53.1182 75.257L109.037 52.7527L110.378 52.2126C110.435 52.7678 110.495 53.3228 110.561 53.8719C111.597 62.3638 113.398 70.7445 115.944 78.9116C125.189 109.247 139.879 129.777 123.802 145.758Z" fill="white"/>
<path d="M60.4154 101.201C58.7561 105.806 53.9522 104.012 53.7692 112.327C53.7031 115.39 49.7784 119.327 46.5348 121.406C47.2669 112.54 50.8166 102.314 52.5599 91.0557C54.5223 91.9048 62.3988 95.7035 60.4154 101.201Z" fill="#3E4561"/>
<path d="M129.56 138.93C125.411 137.832 118.092 134.714 116.937 126.27C115.401 115.081 123.061 108.399 123.496 100.244C124.598 103.181 125.642 106.014 126.584 108.753C130.578 120.344 132.741 130.234 129.56 138.93Z" fill="#3E4561"/>
<path d="M97.164 137.638C97.183 126.532 87.3983 117.512 75.3093 117.491C63.2203 117.47 53.4048 126.457 53.3858 137.563C53.3668 148.67 63.1515 157.69 75.2405 157.711C87.3295 157.731 97.145 148.745 97.164 137.638Z" fill="#FFAF8C"/>
<g opacity="0.3">
<path opacity="0.3" d="M112.43 65.5293L112.046 63.729H112.082C112.196 64.3471 112.31 64.9412 112.43 65.5293Z" fill="#6B184E"/>
<path opacity="0.3" d="M112.262 65.5654L111.83 63.552L112.064 63.567C112.085 63.5651 112.106 63.5651 112.127 63.567L112.229 63.594L112.25 63.699C112.364 64.2991 112.478 64.8992 112.598 65.4814L112.262 65.5654Z" fill="#1A1A5A"/>
</g>
<g opacity="0.3">
<path opacity="0.3" d="M131.276 128.472C131.177 128.523 131.072 128.571 130.976 128.619C130.976 127.572 130.916 126.518 130.808 125.42C130.994 126.455 131.153 127.473 131.276 128.472Z" fill="#6B184E"/>
<path opacity="0.3" d="M130.797 128.877V128.613C130.797 127.59 130.737 126.513 130.629 125.432L130.968 125.384C131.166 126.447 131.328 127.485 131.445 128.448V128.568L131.337 128.622C131.235 128.676 131.127 128.724 131.022 128.772L130.797 128.877Z" fill="#1A1A5A"/>
</g>
<path d="M124.006 143.097C124.006 143.097 124.21 147.21 124.333 152.737C124.369 154.388 124.396 156.164 124.414 157.997C124.495 167.995 124.132 179.619 122.095 181.177C120.361 182.506 109.493 184.114 108.655 183.139C106.751 179.369 105.404 175.342 104.656 171.185C104.614 171.023 104.575 170.855 104.536 170.693C104.512 170.582 104.485 170.48 104.461 170.393C104.107 168.919 103.768 167.437 103.455 166.021C102.285 160.755 101.448 156.341 101.448 156.341L124.006 143.097Z" fill="white"/>
<g opacity="0.3">
<path opacity="0.3" d="M130.797 125.419C130.139 122.04 129.275 118.704 128.211 115.43C127.89 113.576 127.449 111.671 126.908 109.702C128.797 114.777 130.102 120.05 130.797 125.419Z" fill="#6B184E"/>
<path opacity="0.3" d="M130.971 125.405L130.628 125.453C129.972 122.081 129.111 118.752 128.048 115.485C127.748 113.703 127.313 111.833 126.743 109.751L127.073 109.649C128.977 114.733 130.285 120.02 130.971 125.405ZM128.096 113.889C128.202 114.403 128.302 114.908 128.396 115.404C128.921 117.069 129.38 118.636 129.776 120.112C129.347 118.216 128.798 116.163 128.099 113.874L128.096 113.889Z" fill="#1A1A5A"/>
</g>
<path d="M124.036 172.863C123.7 177.159 123.103 180.406 122.092 181.177C120.358 182.503 109.489 184.112 108.652 183.14C107.216 180.557 106.186 177.769 105.598 174.873C111.542 172.951 117.817 172.266 124.036 172.863Z" fill="#686868"/>
<g opacity="0.3">
<path opacity="0.3" d="M128.786 114.744L128.546 114.426H128.588C128.588 114.426 128.66 114.537 128.786 114.744Z" fill="#6B184E"/>
<path opacity="0.3" d="M128.66 114.849L128.258 114.315L128.681 114.222L128.747 114.324C128.747 114.324 128.825 114.444 128.948 114.657L128.66 114.849Z" fill="#1A1A5A"/>
</g>
<g opacity="0.3">
<path opacity="0.3" d="M130.814 125.531C131.33 129.144 130.992 132.827 129.828 136.286C128.663 139.745 126.706 142.883 124.111 145.449C124.177 147.187 124.267 149.755 124.333 152.738C124.333 152.816 124.333 152.897 124.333 152.981C124.333 153.206 124.333 153.437 124.333 153.665C124.36 155.048 124.381 156.503 124.396 157.998C124.477 167.995 124.114 179.62 122.077 181.177C120.343 182.506 109.474 184.114 108.637 183.139C106.739 179.368 105.398 175.341 104.656 171.185C106.528 178.002 114.644 176.526 118.515 173.459C121.03 171.467 121.171 165.844 120.808 161.262C120.763 160.697 120.591 160.15 120.306 159.66C120.02 159.171 119.628 158.752 119.158 158.435C118.689 158.118 118.154 157.91 117.593 157.829C117.032 157.747 116.46 157.792 115.92 157.962C115.59 158.064 115.251 158.187 114.896 158.319C109.087 160.53 106.315 163.138 102.768 162.858C102.357 161.01 102.072 159.657 101.868 158.676C81.5813 165.532 57.5918 163.411 49.9314 148.69C48.4491 145.874 47.3261 142.883 46.5887 139.787C58.1469 161.49 103.734 156.836 124.159 136.523C127.317 133.517 129.615 129.723 130.814 125.531Z" fill="#1A1A5A"/>
</g>
<path d="M40.567 27.8121C39.1029 27.6959 37.7097 27.1337 36.575 26.2012C35.4403 25.2688 34.6186 24.0109 34.2208 22.5972C33.5418 20.8658 33.2726 19.0009 33.4345 17.1482C33.5964 15.2955 34.1849 13.5055 35.154 11.9182C36.0831 10.5551 37.3558 9.4616 38.8432 8.7482C40.3306 8.0348 41.98 7.72682 43.6246 7.85541C44.4125 7.85389 45.1995 7.90703 45.98 8.01444C50.9842 8.57406 55.7382 10.4985 59.7226 13.5775C61.0917 14.5094 62.0544 15.9277 62.4151 17.5441C62.7757 19.1606 62.5071 20.8537 61.6639 22.2791C61.0435 23.1002 60.2174 23.7431 59.2692 24.1429C58.3209 24.5428 57.284 24.6854 56.2629 24.5565C55.5848 24.5565 54.8797 24.5295 54.0275 24.4905C53.7274 24.4905 53.4484 24.4695 53.1573 24.4695C50.0746 24.5598 47.0487 25.3217 44.2907 26.7019C43.6336 27.002 43.0064 27.263 42.4333 27.4671C41.8354 27.6876 41.2042 27.8043 40.567 27.8121Z" fill="white"/>
<path d="M65.1983 22.0576C66.3565 20.8034 64.9882 18.9371 62.5308 17.4008C58.3922 15.0165 53.9107 13.2848 49.2443 12.2668C44.8184 11.2406 41.5808 11.5497 40.5216 12.9359C38.9644 14.9793 39.7955 16.9027 41.1217 18.805C41.9215 19.8972 42.969 20.7841 44.178 21.3928C45.3871 22.0015 46.7234 22.3147 48.077 22.3067C51.7309 21.6147 55.4772 21.5619 59.1491 22.1507C62.1767 22.6758 64.2861 23.0358 65.1983 22.0576Z" fill="#323063"/>
<path d="M116.73 27.4769C116.095 27.477 115.465 27.3694 114.867 27.1588C114.287 26.9548 113.666 26.6877 113.003 26.4087C110.233 25.0536 107.201 24.3193 104.119 24.2573C103.818 24.2573 103.539 24.2573 103.248 24.2843C102.399 24.3293 101.691 24.3653 101.016 24.3683C99.9945 24.5087 98.9541 24.3764 98.0003 23.9849C97.0464 23.5934 96.2131 22.9565 95.585 22.1389C94.7259 20.7197 94.4404 19.0263 94.7866 17.4039C95.1328 15.7815 96.0847 14.3521 97.4483 13.4072C101.407 10.2944 106.144 8.32856 111.143 7.72418C111.923 7.60995 112.71 7.5498 113.498 7.54415C115.142 7.40095 116.794 7.6943 118.288 8.39454C119.781 9.09477 121.064 10.177 122.005 11.5319C122.988 13.1105 123.592 14.8951 123.771 16.7462C123.949 18.5972 123.697 20.4645 123.034 22.2019C122.647 23.6193 121.835 24.8843 120.709 25.8272C119.582 26.7701 118.193 27.3457 116.73 27.4769Z" fill="white"/>
<path d="M92.0533 21.9281C90.883 20.6859 92.2363 18.8046 94.6788 17.2473C98.7963 14.8265 103.263 13.0553 107.92 11.9963C112.337 10.9311 115.578 11.2101 116.649 12.5964C118.224 14.6278 117.411 16.5571 116.109 18.4685C115.319 19.5682 114.279 20.4647 113.075 21.0844C111.871 21.7041 110.537 22.0292 109.183 22.0332C105.524 21.3739 101.778 21.3546 98.1114 21.9762C95.0778 22.5283 92.9714 22.9063 92.0533 21.9281Z" fill="#323063"/>
<path d="M61.2945 16.9324C60.2275 16.9335 59.1663 16.7737 58.1469 16.4583L57.5858 16.2872L57.3788 15.7381C56.7815 13.9908 56.4773 12.1567 56.4786 10.3101C56.4156 8.4301 56.7975 6.56177 57.5932 4.85726C58.3889 3.15276 59.5758 1.66026 61.0575 0.501292C61.266 0.339915 61.5086 0.228126 61.7667 0.174394C62.0249 0.120661 62.2919 0.126393 62.5475 0.191162C62.8031 0.255932 63.0406 0.378038 63.242 0.548222C63.4434 0.718406 63.6034 0.932203 63.71 1.17342C64.3941 2.73071 66.9326 7.89467 70.7073 8.86986L72.2466 9.26593L71.4394 10.6342C70.3756 12.419 68.8991 13.9225 67.1338 15.0184C65.3685 16.1144 63.366 16.7707 61.2945 16.9324Z" fill="#FFB130"/>
<path d="M95.906 16.7797C93.8367 16.6325 91.8326 15.9924 90.061 14.913C88.2895 13.8335 86.8018 12.346 85.7221 10.5745L84.903 9.21229L86.4392 8.80421C90.2079 7.79602 92.6984 2.61105 93.3675 1.04776C93.4722 0.805804 93.6305 0.590835 93.8305 0.419126C94.0305 0.247418 94.267 0.123475 94.522 0.0566871C94.777 -0.0101006 95.0439 -0.0179861 95.3024 0.0336343C95.5609 0.0852547 95.8042 0.195028 96.014 0.354632C97.5074 1.49881 98.7087 2.98026 99.5197 4.67781C100.331 6.37535 100.728 8.24077 100.68 10.1215C100.693 11.9681 100.401 13.8042 99.8157 15.5555L99.6117 16.1076L99.0506 16.2816C98.0324 16.6006 96.9729 16.7684 95.906 16.7797Z" fill="#FFB130"/>
<path d="M79.1207 88.7756C51.9777 88.8956 39.1413 71.6514 38.6132 70.9132C38.5609 70.8412 38.5148 70.7649 38.4751 70.6852C36.4253 66.6469 35.3552 62.1826 35.3516 57.6538C35.4168 54.4066 36.3069 51.2295 37.938 48.421C39.7234 45.3954 42.2358 42.8634 45.2474 41.0546C46.7807 29.3525 50.0483 20.7679 54.9692 15.5649C56.5475 13.8029 58.4754 12.389 60.6301 11.4131C62.7849 10.4372 65.1193 9.92085 67.4846 9.89682C68.5927 9.89192 69.6984 9.99848 70.7852 10.2149C72.3665 3.9137 75.286 1.64227 77.5394 1.63027C77.8937 1.61341 78.247 1.67919 78.5714 1.8224C78.8959 1.96561 79.1825 2.18233 79.4088 2.45542C79.5754 2.67377 79.6891 2.92771 79.7412 3.19736C79.7933 3.46701 79.7822 3.74505 79.7089 4.00971V4.06673C80.1105 3.60122 80.6012 3.22073 81.152 2.94762C81.7029 2.67452 82.3028 2.51431 82.9165 2.47643C83.7746 2.47918 84.5979 2.81605 85.2119 3.4156C85.5413 3.72666 85.749 4.1451 85.7974 4.59561C85.8458 5.04612 85.7318 5.49911 85.4759 5.87306C85.4189 5.95408 85.3589 6.03809 85.2989 6.13111C85.5667 6.07745 85.839 6.04932 86.1121 6.0471C86.7679 6.02775 87.4164 6.18979 87.9861 6.51539C88.5557 6.84099 89.0245 7.3175 89.3407 7.89244C89.4669 8.11204 89.537 8.3594 89.5447 8.61258C89.5435 8.86539 89.4839 9.11452 89.3704 9.34044C89.2569 9.56636 89.0927 9.76295 88.8906 9.91482L89.0946 9.87281C89.9714 9.6706 90.8658 9.55403 91.7651 9.52475C91.9392 9.52475 92.1102 9.52475 92.2812 9.53975C93.9262 9.72443 95.5165 10.2409 96.9561 11.058C98.3357 11.754 99.6196 12.6254 100.776 13.6505C102.339 15.0576 103.694 16.6802 104.8 18.4694C105.875 20.2095 106.779 22.0494 107.5 23.9635C108.173 25.7481 108.73 27.5742 109.168 29.4305C109.534 30.9728 109.831 32.5721 110.069 34.1954C110.234 35.3536 110.369 36.4878 110.435 37.568C110.435 37.658 110.435 37.751 110.435 37.9131C110.435 37.9821 110.435 38.1081 110.435 38.2341C115.393 41.5245 119.232 46.2468 121.441 51.7727V51.8087V51.8597C122.432 55.3932 122.608 59.1058 121.955 62.7173C121.302 66.3288 119.838 69.7448 117.672 72.7076C114.799 76.345 111.17 79.3141 107.035 81.4092C103.077 83.4742 98.8972 85.0847 94.5766 86.2101C89.7541 87.5167 84.8195 88.3676 79.8379 88.7516H79.7899C79.5438 88.7726 79.3338 88.7756 79.1207 88.7756Z" fill="white"/>
<path d="M52.146 25.1958C52.8871 25.6189 53.7693 25.7299 54.5464 26.096C55.9967 26.9534 57.1488 28.2353 57.847 29.7686C58.3254 31.2604 59.0853 32.6467 60.0855 33.8524C61.1493 34.618 62.418 35.0476 63.7281 35.0856C66.3884 35.4574 69.087 35.4625 71.7486 35.1006C77.5997 34.1675 83.3728 29.7386 82.9137 23.2544C82.8621 22.5189 82.7251 21.7919 82.5056 21.088C82.0901 19.7649 81.4103 18.5399 80.5073 17.4873C80.0422 16.9494 79.5267 16.457 78.968 16.0171C78.3954 15.6743 77.8452 15.2955 77.3207 14.8829C77.2792 14.84 77.2402 14.795 77.2037 14.7478C76.7838 14.0438 76.4418 13.2963 76.1835 12.5184C75.7604 11.6251 75.2782 10.7611 74.7402 9.93193C74.1939 9.08696 73.5754 8.29085 72.8919 7.55249C72.3829 8.81483 71.9882 10.1203 71.7126 11.4532C71.7067 11.4812 71.6951 11.5077 71.6786 11.5311C71.662 11.5544 71.6409 11.5742 71.6164 11.5891C71.592 11.604 71.5647 11.6137 71.5364 11.6177C71.5081 11.6217 71.4792 11.6198 71.4516 11.6122C69.7233 11.1022 58.0211 8.29363 50.9067 23.9926C51.2108 24.4925 51.6373 24.9066 52.146 25.1958Z" fill="#6A6A9B"/>
<path d="M79.3822 90.1703C69.2711 90.1126 59.3245 87.6056 50.3938 82.864C47.318 81.228 44.5511 79.0683 42.2173 76.4818C35.283 68.8093 32.4294 61.419 33.7257 54.5057C35.448 45.336 43.8736 40.166 45.908 39.0408C46.7903 36.3846 48.1465 33.9102 49.9107 31.7374C50.4755 31.0198 51.1878 30.432 51.9996 30.0137C52.8113 29.5954 53.7035 29.3564 54.6156 29.313C55.8869 29.4311 57.1147 29.8366 58.2063 30.4988C59.2979 31.161 60.2247 32.0627 60.9168 33.1357C61.6546 34.0606 62.3159 35.044 62.8941 36.0762L93.9619 35.9382C96.7645 31.1853 99.489 28.8659 102.28 28.8539C104.719 28.8539 106.885 30.5912 108.719 34.0508C109.449 35.4458 110.052 36.904 110.519 38.4077C124.118 46.8482 124.217 57.6263 121.876 65.2087C119.555 72.6431 114.435 78.8839 107.596 82.6119C98.9857 87.4852 89.2761 90.0863 79.3822 90.1703Z" fill="#FFAF8C"/>
<path d="M56.6617 35.4309C56.6617 35.4309 57.3999 38.2634 52.2269 40.8109C47.0539 43.3584 46.1477 49.5125 50.6096 49.9806C55.0714 50.4487 61.4026 44.3666 56.6617 35.4309Z" fill="#323063"/>
<path d="M99.9747 35.2386C99.9747 35.2386 99.2636 38.0802 104.458 40.5796C109.652 43.0791 110.615 49.2333 106.159 49.7344C101.703 50.2355 95.3149 44.2133 99.9747 35.2386Z" fill="#323063"/>
<path d="M46.6908 78.1663C43.8957 76.6776 41.329 74.795 39.0693 72.5763C40.2457 74.2871 41.5379 75.9152 42.9371 77.4492C45.1784 79.9301 47.8333 82.0033 50.7835 83.5763C59.3813 88.2896 69.0362 90.7395 78.841 90.696C88.6458 90.6524 98.2785 88.1168 106.834 83.3273C111.176 80.93 114.842 77.4744 117.492 73.2814C115.536 75.0531 113.384 76.5945 111.077 77.8753C101.25 83.379 90.1846 86.2932 78.9214 86.3442C67.6583 86.3951 56.5672 83.5809 46.6908 78.1663Z" fill="#E67B57"/>
<path d="M79.0549 63.6938C79.0549 63.6938 79.355 77.3734 89.0288 75.8761C89.0288 75.8761 98.9907 73.7937 90.9011 59.7931" fill="#FF0000"/>
<path d="M87.6304 77.1926C85.7231 77.2335 83.8661 76.5786 82.4064 75.3503C78.0916 71.7316 77.8635 64.0501 77.8575 63.7231L80.258 63.6661C80.258 63.7351 80.468 70.6004 83.9577 73.5169C84.6284 74.0632 85.4124 74.453 86.2528 74.658C87.0932 74.8631 87.9687 74.8781 88.8156 74.7021C89.5934 74.4974 90.3169 74.1245 90.9349 73.6097C91.5529 73.0948 92.0504 72.4507 92.3923 71.7226C93.5295 69.1331 92.6623 65.2204 89.8778 60.3985L91.9482 59.1982C95.1888 64.8063 96.068 69.3611 94.5617 72.7218C94.058 73.7896 93.3226 74.7317 92.4091 75.4796C91.4956 76.2276 90.4269 76.7625 89.2807 77.0456H89.2207C88.6952 77.1355 88.1635 77.1847 87.6304 77.1926Z" fill="#323063"/>
<path d="M87.0124 68.6224C86.7519 68.622 86.4987 68.5369 86.2908 68.3799C86.083 68.2229 85.9318 68.0026 85.8602 67.7522L84.5789 63.2814C84.5222 63.1265 84.4979 62.9617 84.5077 62.7971C84.5175 62.6325 84.5611 62.4717 84.6358 62.3247C84.7105 62.1777 84.8147 62.0476 84.9418 61.9427C85.069 61.8377 85.2164 61.7601 85.3749 61.7146C85.5334 61.6692 85.6996 61.6568 85.8631 61.6784C86.0265 61.7 86.1838 61.7551 86.325 61.8401C86.4663 61.9252 86.5885 62.0385 86.684 62.1729C86.7796 62.3073 86.8464 62.4599 86.8804 62.6212L88.1616 67.0921C88.2487 67.3977 88.211 67.7253 88.0569 68.0032C87.9028 68.281 87.6448 68.4864 87.3394 68.5744C87.2333 68.606 87.1232 68.6222 87.0124 68.6224Z" fill="#323063"/>
<path d="M62.348 70.7088C62.0852 70.7105 61.8295 70.6238 61.6218 70.4628C60.6349 69.787 59.807 68.9044 59.1956 67.8764C58.5842 66.8483 58.2039 65.6995 58.0812 64.5097C58.118 61.2027 59.387 58.0282 61.6399 55.607C61.8627 55.4039 62.1538 55.2921 62.4554 55.2938C62.7569 55.2956 63.0467 55.4108 63.2672 55.6165C63.4877 55.8222 63.6226 56.1034 63.6452 56.4041C63.6678 56.7048 63.5764 57.003 63.3892 57.2393C61.6029 59.1741 60.5665 61.6833 60.4666 64.3146C60.5645 65.1692 60.8484 65.9919 61.2983 66.7249C61.7483 67.4579 62.3534 68.0834 63.0711 68.5574C63.3235 68.7497 63.4895 69.0341 63.5328 69.3484C63.5761 69.6627 63.4932 69.9814 63.3022 70.2347C63.1885 70.3799 63.0439 70.4978 62.8788 70.5799C62.7137 70.6619 62.5323 70.706 62.348 70.7088Z" fill="#323063"/>
<path d="M98.4086 64.548C98.1165 64.5507 97.8334 64.4467 97.6124 64.2556C97.3915 64.0644 97.2478 63.7993 97.2084 63.5098C97.0292 61.3922 96.2293 59.3744 94.9088 57.7092C93.5884 56.0439 91.8061 54.8052 89.785 54.1481C89.4785 54.0682 89.2159 53.8704 89.0546 53.5978C88.8933 53.3252 88.8463 52.9999 88.9238 52.6928C89.0037 52.3876 89.2006 52.1261 89.4718 51.9649C89.7431 51.8038 90.0668 51.7559 90.3731 51.8316C92.8612 52.6015 95.0645 54.0932 96.7035 56.1174C98.3425 58.1415 99.3433 60.6069 99.5788 63.2008C99.619 63.5144 99.5337 63.8313 99.3415 64.0824C99.1494 64.3335 98.8659 64.4987 98.5526 64.542C98.5136 64.548 98.4596 64.548 98.4086 64.548Z" fill="#323063"/>
<path d="M73.3959 65.2058C73.2009 65.2058 73.0029 65.2058 72.7958 65.2058C68.1836 65.1869 63.5866 64.6749 59.0832 63.6785C58.7989 63.5818 58.5612 63.3822 58.4169 63.1188C58.2726 62.8555 58.2323 62.5476 58.3039 62.256C58.3755 61.9643 58.5538 61.7102 58.8036 61.5436C59.0534 61.377 59.3566 61.31 59.6534 61.356C63.991 62.3035 68.416 62.7932 72.8558 62.8173C79.4991 62.8473 88.7288 61.7101 95.06 56.1231C95.1768 56.0108 95.3152 55.9234 95.4667 55.8661C95.6183 55.8088 95.7799 55.7827 95.9417 55.7895C96.1036 55.7963 96.2624 55.8358 96.4086 55.9056C96.5548 55.9754 96.6854 56.0741 96.7924 56.1958C96.8995 56.3174 96.9808 56.4594 97.0314 56.6133C97.0821 56.7672 97.1011 56.9298 97.0872 57.0912C97.0734 57.2526 97.027 57.4096 96.9509 57.5526C96.8748 57.6956 96.7705 57.8218 96.6443 57.9234C93.2951 60.7748 89.3192 62.7941 85.0411 63.8165C81.2317 64.7593 77.3202 65.2259 73.3959 65.2058Z" fill="#323063"/>
<path d="M69.3479 32.6582C70.8842 32.6582 72.1204 30.6268 72.1084 28.1363C72.0964 25.6459 70.8422 23.6355 69.3059 23.6355C67.7696 23.6355 66.5334 25.6669 66.5454 28.1573C66.5574 30.6478 67.8116 32.6642 69.3479 32.6582Z" fill="#323063"/>
<path d="M87.9935 32.5775C89.5298 32.5775 90.766 30.5461 90.754 28.0556C90.742 25.5652 89.4878 23.5548 87.9515 23.5548C86.4152 23.5548 85.179 25.5862 85.191 28.0766C85.203 30.5671 86.4572 32.5835 87.9935 32.5775Z" fill="#323063"/>
<path d="M95.027 15.1891C88.8242 15.3214 81.4363 17.5701 79.0462 17.6218C76.6561 17.6735 69.1614 15.7434 62.9685 15.8784C56.7756 16.0135 49.5917 16.7796 49.5917 16.7796L49.6799 20.8336L51.8909 20.7864C51.8909 20.7864 52.4389 31.9602 56.6041 34.2665C60.4369 36.3886 68.1438 35.6682 71.4072 33.9479C74.4385 32.3449 75.077 30.796 76.3238 25.423C76.7044 23.7767 76.743 22.0953 79.1405 22.0463C81.538 21.9973 81.6461 23.6733 82.0988 25.3001C83.5753 30.6166 84.2748 32.1366 87.3767 33.6077C90.7115 35.1853 98.4419 35.5741 102.18 33.2892C106.232 30.805 106.323 19.6207 106.323 19.6207L108.534 19.5735L108.446 15.5195C108.446 15.5195 101.232 15.0544 95.027 15.1891Z" fill="#E21B29"/>
<path d="M74.4249 20.1783C73.5788 18.4128 68.405 17.4802 63.8611 17.5783C59.3172 17.6765 54.139 18.5258 54.1887 22.2108C54.2423 25.8462 55.123 34.1694 62.9223 34.0061C69.6798 33.8608 71.989 32.7056 73.2731 29.5433C74.2105 27.2379 75.6472 22.7332 74.4249 20.1783Z" fill="black"/>
<path d="M83.7617 19.9763C84.5323 18.1728 89.6599 17.0237 94.2038 16.9255C98.7477 16.8274 103.961 17.4505 104.065 21.1371C104.168 24.7715 103.646 33.1291 95.8466 33.2974C89.0892 33.4427 86.7328 32.3869 85.3133 29.2842C84.2785 27.0208 82.6511 22.5821 83.7617 19.9763Z" fill="black"/>
<defs>
<linearGradient id="paint0_linear" x1="17494.2" y1="11302.8" x2="27431.7" y2="11302.8" gradientUnits="userSpaceOnUse">
<stop stop-color="#79A0EA"/>
<stop offset="1" stop-color="#6663A4"/>
</linearGradient>
</defs>
</svg>
