<svg width="200" height="200" viewBox="0 0 200 200" fill="none" xmlns="http://www.w3.org/2000/svg">
<path d="M159.521 187.861C159.16 187.861 158.809 187.852 158.457 187.832C157.939 187.803 157.392 187.783 156.787 187.783C147.217 187.715 142.578 181.738 142.324 176.211C142.178 173.047 143.555 170.781 145.742 170.566C146.162 170.527 146.797 170.508 147.734 170.508C153.34 170.508 167.627 171.23 168.232 171.27C169.17 171.318 169.971 171.953 170.234 172.852C171.582 177.51 171.26 181.221 169.258 183.887C166.65 187.344 162.041 187.861 159.521 187.861Z" fill="#6A6A9B"/>
<path d="M147.734 172.705C153.349 172.705 168.115 173.457 168.115 173.457C171.308 184.463 163.203 185.664 159.512 185.664C159.15 185.664 158.838 185.654 158.574 185.635C157.978 185.605 157.383 185.586 156.797 185.586C143.281 185.498 143.164 173.027 145.957 172.754C146.318 172.715 146.933 172.705 147.734 172.705ZM147.734 168.311C146.719 168.311 146.035 168.33 145.527 168.379C142.148 168.711 139.922 171.973 140.127 176.318C140.43 182.852 145.762 189.912 156.767 189.99C157.344 189.99 157.851 190.01 158.33 190.039C158.721 190.059 159.121 190.068 159.521 190.068C164.58 190.068 168.662 188.34 171.015 185.215C173.457 181.963 173.906 177.607 172.353 172.246C171.836 170.449 170.224 169.18 168.359 169.082C167.734 169.033 153.398 168.311 147.734 168.311Z" fill="#323063"/>
<path d="M155.742 176.973C151.162 176.973 147.246 176.26 144.101 174.854C143.525 174.59 143.086 174.092 142.9 173.486C142.715 172.881 142.803 172.217 143.135 171.68C143.232 171.523 145.596 167.754 149.141 163.936C154.141 158.555 158.887 155.82 163.262 155.82C163.916 155.82 164.56 155.879 165.185 156.006C165.674 156.104 166.123 156.357 166.445 156.748C166.66 157.002 171.68 163.066 170.635 173.379C170.547 174.287 169.902 175.039 169.023 175.283C168.779 175.342 162.685 176.973 155.742 176.973Z" fill="white"/>
<path d="M163.262 158.018C163.769 158.018 164.267 158.066 164.766 158.164C164.766 158.164 169.404 163.652 168.447 173.154C168.447 173.154 162.471 174.775 155.742 174.775C152.109 174.775 148.252 174.307 145 172.842C145.01 172.842 154.248 158.018 163.262 158.018ZM163.271 153.623C163.271 153.623 163.262 153.623 163.271 153.623C158.262 153.623 152.969 156.592 147.539 162.441C143.857 166.406 141.387 170.352 141.279 170.518C140.605 171.592 140.43 172.91 140.801 174.131C141.172 175.352 142.051 176.338 143.213 176.865C146.641 178.398 150.859 179.18 155.752 179.18C162.988 179.18 169.346 177.481 169.609 177.402C171.367 176.924 172.646 175.41 172.832 173.594C173.291 168.994 172.676 164.453 171.045 160.439C169.805 157.383 168.398 155.645 168.125 155.322C167.48 154.561 166.592 154.033 165.605 153.848C164.844 153.701 164.062 153.623 163.271 153.623Z" fill="#323063"/>
<path d="M110.957 183.555C103.633 183.555 98.7794 182.764 98.5743 182.725C98.4962 182.715 98.4279 182.695 98.3497 182.676L98.1056 182.607C95.3615 182.705 92.6661 182.754 90.088 182.754C58.1251 182.754 50.088 175.488 49.2775 174.658C49.0919 174.473 48.9454 174.258 48.838 174.023C47.2853 170.557 46.338 166.689 46.0255 162.519C41.8263 159.98 33.8478 153.73 30.0197 141.26C29.8244 140.635 29.922 139.961 30.2833 139.414C30.4103 139.209 33.5548 134.502 38.6427 134.502C39.8829 134.502 41.1329 134.785 42.3439 135.342C43.0275 135.654 43.4962 136.289 43.6037 137.031C43.6134 137.061 44.1994 140.684 47.7345 145.576C53.379 122.646 70.2345 100.859 70.9962 99.8926C71.2013 99.6191 71.4747 99.4043 71.7872 99.2578C86.8849 92.0605 105 88.418 125.654 88.418C153.877 88.418 176.494 95.1855 177.451 95.4785C178.291 95.7324 178.897 96.4648 178.994 97.334C182.276 126.172 177.256 148.281 164.072 163.047C157.129 170.82 147.979 176.494 136.865 179.883C128.936 182.324 120.215 183.555 110.957 183.555Z" fill="white"/>
<path d="M181.182 97.0996C180.986 95.3613 179.766 93.8965 178.086 93.3887C177.129 93.0957 154.199 86.2305 125.654 86.2305H125.645C104.668 86.2305 86.2305 89.9512 70.8399 97.2852C70.2247 97.5781 69.6875 98.0078 69.2676 98.5449C69.0625 98.8086 64.1407 105.137 58.6426 114.57C53.3887 123.574 49.4922 132.109 47.002 140.068C46.0938 138.154 45.8301 136.904 45.7911 136.699C45.6153 135.186 44.668 133.984 43.2813 133.34C41.7774 132.646 40.2247 132.295 38.6622 132.295C32.5098 132.295 28.8575 137.598 28.4669 138.203C27.754 139.297 27.5587 140.654 27.9395 141.904C31.7091 154.17 39.3165 160.771 43.9551 163.799C44.3653 167.803 45.3321 171.533 46.8555 174.922C47.0704 175.4 47.3633 175.83 47.7247 176.201C48.3301 176.816 50.8008 178.994 57.1583 181.025C65.3028 183.633 76.3868 184.951 90.0977 184.951C92.5879 184.951 95.1954 184.902 97.8516 184.814C97.9688 184.844 98.086 184.873 98.2129 184.893C98.4278 184.932 103.457 185.752 110.957 185.752C120.439 185.752 129.375 184.492 137.51 182.002C149.014 178.486 158.506 172.607 165.713 164.521C179.326 149.268 184.531 126.582 181.182 97.0996ZM32.1387 140.615C32.1387 140.615 34.6973 136.699 38.6524 136.699C39.5118 136.699 40.4493 136.885 41.4258 137.344C41.4258 137.344 41.9337 140.957 45.3126 145.967C44.8926 148.33 43.9063 154.463 44.0528 158.467C40.0977 155.322 34.9415 149.746 32.1387 140.615ZM110.957 181.357C103.73 181.357 98.9356 180.557 98.9356 180.557L98.3692 180.4C95.4395 180.508 92.6856 180.557 90.0977 180.557C58.1348 180.557 50.8594 173.125 50.8594 173.125C49.1895 169.395 48.3594 165.371 48.1739 161.211C48.1739 161.211 48.1055 153.457 48.9454 150.518C53.2129 126.27 72.7344 101.26 72.7344 101.26C89.7266 93.1543 108.652 90.6348 125.654 90.6348C153.877 90.6348 176.807 97.5977 176.807 97.5977C185.352 172.646 134.854 181.357 110.957 181.357Z" fill="#323063"/>
<path d="M95.0879 175.02L94.5117 174.863C68.2031 175.781 55.3809 172.373 49.6582 169.912C50 170.996 50.4004 172.07 50.8691 173.115C50.8691 173.115 59.3652 181.797 98.3789 180.391L98.9453 180.547C98.9453 180.547 151.553 189.277 170.82 148.896C146.299 181.572 95.0879 175.02 95.0879 175.02Z" fill="#E6E7E8"/>
<path d="M72.1973 129.482C74.6875 127.754 76.25 125.088 78.3887 122.978C80.9082 120.478 85.4981 120.879 85.0977 115.732C84.8145 112.09 80.6348 109.814 77.4707 109.893C74.2481 109.971 71.5332 112.432 68.8281 113.984C66.9434 115.068 64.9316 115.82 62.8906 115.947C60.625 119.795 58.2422 124.189 56.0645 128.896C60.8008 131.67 67.9297 132.432 72.1973 129.482Z" fill="#6A6A9B"/>
<path d="M172.5 144.951C170.088 145.078 167.647 144.16 165.664 142.539C165.137 142.1 164.629 141.621 164.17 141.084C160.977 137.383 160.049 132.412 155.254 130.312C148.486 127.363 141.445 133.672 140.957 141.123C140.791 143.691 141.387 146.309 142.588 148.516C143.77 150.684 146.377 152.402 145.166 155.303C144.619 156.611 143.672 157.686 143.223 159.033C142.617 160.859 143.096 163.057 144.385 164.394C146.563 166.641 149.365 164.893 151.846 166.191C152.891 166.738 153.74 167.686 154.561 168.652C161.875 163.271 168.281 155.654 172.5 144.951Z" fill="#6A6A9B"/>
<path d="M127.627 132.715C124.961 130.586 120.762 130.664 117.598 129.385C116.28 128.857 115.098 128.486 114.336 127.334C113.145 125.527 114.58 123.096 113.33 121.387C110.616 117.666 105.606 123.887 103.985 125.859C101.114 129.346 100.694 133.799 97.8617 137.217C92.2367 144.004 80.6156 136.23 76.0844 143.369C74.2972 146.191 73.6625 151.191 76.9633 153.018C77.8226 153.496 78.848 153.691 79.7465 154.111C81.0355 154.717 82.0414 155.801 82.5101 157.07C82.8031 157.891 82.9398 158.857 83.6918 159.365C84.3656 159.814 85.3226 159.727 86.1429 159.473C88.3207 158.809 90.0492 157.227 92.0414 156.133C99.0238 152.285 101.905 159.775 108.418 159.561C110.801 159.482 113.243 158.359 114.541 156.465C116.495 153.603 115.508 150.186 115.948 147.08C116.602 142.363 122.041 140.225 126.133 138.271C127.286 137.715 128.545 137.021 128.916 135.869C129.287 134.707 128.594 133.486 127.627 132.715Z" fill="#6A6A9B"/>
<path d="M75.3615 176.455C75.3029 176.455 75.2443 176.455 75.1857 176.445C73.9748 176.348 73.0764 175.283 73.174 174.082C74.3068 159.98 72.1584 155.801 72.1389 155.771C71.4553 154.766 71.7287 153.398 72.7346 152.715C73.7404 152.031 75.1076 152.305 75.7912 153.311C76.3088 154.082 78.8381 158.711 77.5686 174.434C77.4611 175.586 76.4943 176.455 75.3615 176.455Z" fill="#323063"/>
<path d="M97.4416 179.57C96.6896 179.57 95.9572 179.18 95.547 178.486C89.3361 167.91 90.8497 152.461 90.9181 151.807C91.0451 150.596 92.1193 149.717 93.3302 149.844C94.5412 149.971 95.4201 151.045 95.2931 152.256C95.2736 152.402 93.8771 166.934 99.3459 176.26C99.9611 177.305 99.6095 178.652 98.5646 179.268C98.1935 179.482 97.8127 179.57 97.4416 179.57Z" fill="#323063"/>
<path d="M122.91 181.387C122.598 181.387 122.275 181.318 121.973 181.172C120.879 180.654 120.4 179.346 120.918 178.242C121.006 178.057 126.807 165.479 124.551 154.033C124.316 152.842 125.088 151.689 126.279 151.455C127.471 151.221 128.623 151.992 128.857 153.184C131.396 166.103 125.156 179.551 124.883 180.117C124.531 180.918 123.74 181.387 122.91 181.387Z" fill="#323063"/>
<path d="M62.725 189.209C62.2172 189.209 61.7094 189.199 61.2016 189.189C60.7328 189.18 60.2543 189.17 59.7953 189.17C59.7465 189.17 59.6586 189.17 59.5805 189.17C55.4203 189.17 52.2563 187.891 50.1859 185.352C46.6899 181.094 47.8715 174.961 47.9203 174.707C48.1254 173.701 48.9945 172.969 50.0199 172.939C51.6606 172.9 54.5121 172.881 58.5063 172.881C65.2836 172.881 73.1156 172.939 73.1938 172.939C73.7895 172.939 74.3559 173.193 74.766 173.623C75.1762 174.053 75.391 174.639 75.3715 175.234C75.1274 180.869 73.7211 184.678 71.0746 186.875C68.6137 188.926 65.6059 189.209 62.725 189.209Z" fill="#6A6A9B"/>
<path d="M58.5061 175.088C65.3518 175.088 73.1741 175.146 73.1741 175.146C72.7053 186.113 67.7835 187.012 62.7249 187.012C61.7483 187.012 60.762 186.982 59.7952 186.982C59.7268 186.982 59.6585 186.982 59.5803 186.982C47.7053 186.982 50.0784 175.156 50.0784 175.156C51.9143 175.098 55.0881 175.088 58.5061 175.088ZM58.5061 170.693C54.4924 170.693 51.6213 170.713 49.9612 170.762C47.9104 170.811 46.1624 172.285 45.762 174.297C45.6155 175.049 44.4045 181.797 48.4866 186.768C50.2151 188.877 53.5452 191.387 59.5803 191.387C59.6585 191.387 59.7366 191.387 59.8147 191.387C60.2444 191.387 60.6936 191.396 61.1624 191.406C61.6702 191.416 62.1877 191.426 62.7249 191.426C65.8596 191.426 69.4729 191.094 72.4807 188.594C75.635 185.977 77.2952 181.641 77.5686 175.352C77.6174 174.16 77.1878 172.998 76.3674 172.129C75.5471 171.26 74.4046 170.771 73.2131 170.762C73.135 170.752 65.2932 170.693 58.5061 170.693Z" fill="#323063"/>
<path d="M110.791 192.197C109.483 192.197 108.448 192.09 107.94 192.022C107.803 192.002 107.647 191.992 107.432 191.973C103.36 191.689 100.332 190.205 98.4378 187.559C95.1761 183.018 96.7484 176.836 96.8167 176.572C97.0706 175.606 97.9495 174.932 98.9456 174.932C98.9847 174.932 99.014 174.932 99.053 174.932L122.012 176.055C123.086 176.104 123.965 176.924 124.092 177.988C124.6 182.285 123.75 185.723 121.543 188.193C118.604 191.504 114.082 192.197 110.791 192.197Z" fill="#6A6A9B"/>
<path d="M98.9455 177.119L121.904 178.242C123.135 188.574 115.215 189.99 110.791 189.99C109.61 189.99 108.672 189.893 108.233 189.834C108.018 189.805 107.803 189.785 107.588 189.775C95.8498 188.955 98.9455 177.119 98.9455 177.119ZM98.9455 172.725C96.9533 172.725 95.2053 174.063 94.6975 176.006C94.5022 176.758 92.8713 183.545 96.6604 188.828C98.2424 191.035 101.367 193.74 107.295 194.16C107.451 194.17 107.578 194.18 107.666 194.199C108.223 194.277 109.365 194.395 110.801 194.395C114.531 194.395 119.717 193.574 123.194 189.658C125.83 186.689 126.865 182.676 126.279 177.734C126.026 175.605 124.268 173.965 122.129 173.857L99.1701 172.734C99.092 172.725 99.0237 172.725 98.9455 172.725Z" fill="#323063"/>
<path d="M145.381 179.453C146.816 182.539 150.215 185.527 156.816 185.576C157.412 185.576 158.008 185.596 158.594 185.625C160.82 185.752 167.1 185.625 168.555 180.391C157.422 187.871 148.154 181.719 145.381 179.453Z" fill="#4D4D7C"/>
<path d="M50.2441 180.596C51.0352 183.73 53.3789 187.051 59.7852 186.973C64.5996 186.973 70.0586 187.812 72.2364 181.074C62.2071 187.598 53.7402 183.135 50.2441 180.596Z" fill="#4D4D7C"/>
<path d="M98.8965 183.242C99.6191 186.27 101.797 189.365 107.598 189.766C107.812 189.785 108.027 189.795 108.242 189.824C110.01 190.059 119.834 190.996 121.728 183.135C111.328 190.479 102.49 185.85 98.8965 183.242Z" fill="#4D4D7C"/>
<path d="M29.8437 145.381C23.3496 145.381 17.4316 141.855 14.3848 136.182C13.3008 134.15 12.6563 131.982 12.4902 129.756C12.2852 127.109 12.9102 124.385 14.2871 121.885C15.3418 119.961 16.543 115.693 12.7637 108.701L11.2988 105.996L14.3262 105.488C14.3848 105.479 15.8203 105.244 18.0078 105.244C23.8965 105.244 38.2129 107.061 43.916 123.896C45.0976 127.383 45.2637 131.016 44.4043 134.414C43.0957 139.59 39.8535 143.115 35.0195 144.609C33.3301 145.117 31.5918 145.381 29.8437 145.381Z" fill="#6A6A9B"/>
<path d="M18.0078 107.432C24.043 107.432 36.6699 109.346 41.8262 124.59C42.8418 127.578 43.0371 130.811 42.2656 133.867C41.416 137.207 39.3359 140.967 34.3555 142.5C32.8613 142.959 31.3379 143.184 29.834 143.184C24.3066 143.184 19.0234 140.195 16.3184 135.146C15.459 133.545 14.834 131.689 14.6777 129.59C14.502 127.275 15.0879 124.98 16.2012 122.939C17.4512 120.654 18.9746 115.586 14.6875 107.646C14.6973 107.646 15.9766 107.432 18.0078 107.432ZM18.0078 103.027C15.6738 103.027 14.1309 103.281 13.9648 103.311L7.91016 104.336L10.8301 109.736C14.2383 116.045 13.0371 119.59 12.3633 120.82C10.7813 123.701 10.0684 126.846 10.3027 129.912C10.498 132.451 11.2207 134.912 12.4512 137.207C15.8691 143.603 22.5391 147.568 29.8438 147.568C31.8164 147.568 33.7695 147.275 35.6641 146.689C41.1914 144.98 45.0488 140.801 46.5332 134.932C47.5 131.113 47.3145 127.051 45.9961 123.164C43.3789 115.42 38.7598 109.775 32.2852 106.387C26.9727 103.613 21.5918 103.027 18.0078 103.027Z" fill="#323063"/>
<path d="M34.3551 138.457C27.3825 140.615 19.7653 137.529 16.318 131.094C15.6344 129.814 15.0973 128.359 14.8337 126.758C14.6676 127.686 14.6091 128.623 14.6774 129.57C14.8337 131.68 15.4587 133.525 16.318 135.127C19.7653 141.562 27.3825 144.639 34.3551 142.49C39.3356 140.947 41.4157 137.197 42.2653 133.857C42.7536 131.934 42.8512 129.941 42.6071 127.988C42.529 128.604 42.4118 129.219 42.2653 129.824C41.4157 133.164 39.3356 136.924 34.3551 138.457Z" fill="#4D4D7C"/>
<path d="M117.207 32.8613C114.521 32.8613 111.933 32.1094 109.521 30.6348L108.613 30.0781L108.496 29.0234C108.476 28.877 108.125 25.4102 109.189 21.3281C110.644 15.7617 114.023 11.6992 118.965 9.58008C119.326 9.42383 119.717 9.3457 120.107 9.3457C121.543 9.3457 122.754 10.3809 122.978 11.7969C123.34 14.043 124.853 21.5527 129.306 24.0332L131.826 25.4395L129.785 27.4707C129.56 27.6856 124.267 32.8613 117.207 32.8613Z" fill="#FFB130"/>
<path d="M120.107 11.5137C120.459 11.5137 120.781 11.7676 120.84 12.1387C121.279 14.873 122.988 22.9883 128.252 25.9277C128.252 25.9277 123.447 30.7031 117.207 30.7031C115.146 30.7031 112.92 30.1855 110.664 28.7891C110.664 28.7891 109.297 16.0938 119.824 11.5723C119.922 11.5332 120.019 11.5137 120.107 11.5137ZM120.107 7.16797C119.414 7.16797 118.74 7.30469 118.105 7.57812C112.519 9.9707 108.711 14.541 107.09 20.7715C105.947 25.1562 106.299 28.8379 106.338 29.248L106.562 31.3672L108.379 32.4805C111.133 34.1699 114.101 35.0293 117.197 35.0293C125.009 35.0293 130.683 29.6191 131.308 28.9941L135.4 24.9316L130.371 22.1191C127.509 20.5176 125.752 15.3613 125.127 11.4355C124.726 8.97461 122.617 7.16797 120.107 7.16797Z" fill="#323063"/>
<path d="M163.281 44.6973C153.984 44.6973 149.121 36.4648 147.841 32.1191L147.031 29.3555L149.912 29.3457C155.009 29.3164 159.97 23.4766 161.367 21.6895C161.923 20.9766 162.753 20.5664 163.662 20.5664C164.56 20.5664 165.4 20.9766 165.957 21.6895C169.257 25.9375 170.263 31.123 168.837 36.6992C167.802 40.7812 165.81 43.6523 165.722 43.7695L165.107 44.6387L164.043 44.6875C163.789 44.6875 163.535 44.6973 163.281 44.6973Z" fill="#FFB130"/>
<path d="M163.652 22.7246C163.867 22.7246 164.081 22.8223 164.228 23.0078C171.269 32.0508 163.935 42.5098 163.935 42.5098C163.71 42.5195 163.486 42.5293 163.261 42.5293C153.134 42.5293 149.902 31.5137 149.902 31.5137C155.927 31.4844 161.347 25.2051 163.056 23.0176C163.222 22.8223 163.437 22.7246 163.652 22.7246ZM163.652 18.3887C162.08 18.3887 160.615 19.1016 159.648 20.3418C157.197 23.4766 153.173 27.1484 149.892 27.168L144.13 27.1973L145.751 32.7246C145.859 33.0859 146.855 36.3281 149.326 39.6289C152.89 44.3652 157.714 46.8652 163.271 46.8652C163.554 46.8652 163.857 46.8555 164.14 46.8457L166.269 46.7481L167.49 45C167.724 44.668 169.814 41.6113 170.927 37.2168C172.519 30.9668 171.386 25.1367 167.656 20.3418C166.689 19.1016 165.234 18.3887 163.652 18.3887Z" fill="#323063"/>
<path d="M106.895 41.0352C104.863 41.0352 102.656 40.3516 100.313 39.6191C98.0177 38.9062 95.7228 38.5644 93.2814 38.5644C90.8888 38.5644 88.7697 38.8965 86.9044 39.1895C85.9181 39.3457 85.0001 39.4922 84.1407 39.5605C83.8868 39.5801 83.6329 39.5996 83.379 39.5996C77.9493 39.5996 74.6974 34.5312 74.3947 29.7559C74.1212 25.5469 74.5216 20.5566 79.4923 15.5371C81.5626 13.4473 84.4923 12.334 87.9591 12.334C90.4396 12.334 93.0568 12.9004 95.7618 14.0039C102.754 16.8848 108.926 21.4844 112.256 26.3281C115.469 30.9863 115.254 36.0547 111.719 39.2383C110.371 40.4492 108.799 41.0352 106.895 41.0352Z" fill="white"/>
<path d="M87.9588 14.502C90.0877 14.502 92.451 14.9902 94.9314 16.0156C101.543 18.7305 107.344 23.0371 110.469 27.5586C112.803 30.9473 113.183 35 110.263 37.6172C109.267 38.5156 108.164 38.8574 106.894 38.8574C105.234 38.8574 103.291 38.2715 100.957 37.5391C98.1541 36.6699 95.5955 36.3867 93.2811 36.3867C89.4236 36.3867 86.2693 37.1875 83.9451 37.3926C83.7498 37.4121 83.5643 37.4219 83.3787 37.4219C79.2283 37.4219 76.7967 33.2227 76.5623 29.6094C76.2987 25.4981 76.7869 21.3477 81.035 17.0508C82.6854 15.3906 85.1072 14.502 87.9588 14.502ZM87.9588 10.166C83.8963 10.166 80.4295 11.4941 77.949 14.0137C72.3436 19.6875 71.953 25.4785 72.2264 29.9023C72.4022 32.6465 73.4373 35.4297 75.0584 37.5391C77.1678 40.2734 80.117 41.7773 83.369 41.7773C83.6815 41.7773 84.0037 41.7676 84.326 41.7383C85.2537 41.6504 86.2108 41.5039 87.2264 41.3477C89.0135 41.0645 91.0447 40.752 93.2713 40.752C95.4881 40.752 97.5779 41.0645 99.658 41.709C102.158 42.4805 104.521 43.2129 106.885 43.2129C109.316 43.2129 111.426 42.4219 113.164 40.8594C117.49 36.9629 117.842 30.6348 114.033 25.1074C110.41 19.8633 104.053 15.0879 96.5721 12.0117C93.6229 10.7813 90.7225 10.166 87.9588 10.166Z" fill="#323063"/>
<path d="M116.123 39.7559C118.095 38.4961 116.933 35.5566 114.209 32.666C110.576 28.8086 104.668 24.5508 98.3981 21.2598C92.8903 18.3594 88.5056 17.6465 86.6208 19.1211C83.8474 21.2891 84.2868 24.1211 85.361 27.0996C86.3571 29.8242 89.5603 33.5059 93.3493 34.1504C96.4939 34.6875 101.123 34.5898 108.066 37.7832C111.904 39.5312 114.57 40.7422 116.123 39.7559Z" fill="#323063"/>
<path d="M184.287 65.5859C182.675 65.5859 181.172 65.1172 179.804 64.1992C179.091 63.7207 178.349 63.1445 177.568 62.539C174.726 60.332 171.181 57.5879 165.615 56.4355C161.308 55.5469 157.246 54.707 155.82 50.5859C154.258 46.084 156.523 41.5527 161.582 39.0234C165.605 37.0117 171.015 35.9082 176.797 35.9082C178.525 35.9082 180.263 36.0059 181.982 36.2012C189.043 37.0117 194.091 40.4492 195.488 45.4004C197.412 52.207 195.351 56.7578 193.076 60.3125C191.035 63.5254 187.588 65.5859 184.287 65.5859Z" fill="white"/>
<path d="M176.787 38.0859C178.418 38.0859 180.078 38.1738 181.728 38.3691C187.959 39.082 192.275 42.0508 193.398 45.9961C195.039 51.8066 193.467 55.6836 191.25 59.1504C189.785 61.4356 187.08 63.418 184.287 63.418C183.184 63.418 182.08 63.1152 181.016 62.4024C177.92 60.3125 173.721 55.8984 166.045 54.3164C161.807 53.4473 158.867 52.793 157.861 49.8828C156.572 46.1816 158.857 42.8125 162.539 40.9766C166.318 39.0918 171.416 38.0859 176.787 38.0859ZM176.797 33.7402V38.0859V33.7402C170.684 33.7402 164.941 34.9316 160.615 37.0898C154.609 40.0879 151.865 45.8008 153.769 51.2988C154.629 53.7793 156.367 55.625 158.955 56.8067C160.83 57.666 163.047 58.1152 165.185 58.5645C170.254 59.6094 173.574 62.1875 176.25 64.2578C177.06 64.8926 177.832 65.4883 178.603 66.0059C180.312 67.1582 182.275 67.7637 184.297 67.7637C188.32 67.7637 192.48 65.3027 194.912 61.4942C197.295 57.7637 199.746 52.4902 197.578 44.8242C196.738 41.8555 194.766 39.2676 191.885 37.3535C189.267 35.625 185.928 34.4824 182.226 34.0527C180.43 33.8477 178.603 33.7402 176.797 33.7402Z" fill="#323063"/>
<path d="M151.709 48.916C150.586 46.8652 153.027 44.8437 156.807 43.6328C161.846 42.0117 169.072 41.1328 176.162 41.2793C182.383 41.4062 186.572 42.8906 187.51 45.0976C188.896 48.3301 187.139 50.6054 184.756 52.6855C182.568 54.5898 177.988 56.2695 174.355 55C171.348 53.9551 167.334 51.6308 159.717 51.0742C155.508 50.7617 152.588 50.5273 151.709 48.916Z" fill="#323063"/>
<path d="M132.002 135.439C121.025 135.439 112.558 133.75 112.207 133.672L112.158 133.662L112.109 133.652C75.1949 124.541 63.9156 96.5918 63.4566 95.4004C63.398 95.2441 63.3589 95.0976 63.3296 94.9511C60.3218 79.0234 65.566 69.7754 70.4878 64.8242C75.0972 60.1855 80.4 58.2226 82.7046 57.5488C94.3062 29.1992 108.125 23.2129 117.714 23.2129C121.943 23.2129 125.351 24.3945 127.382 25.332C131.972 17.2363 136.513 16.3184 138.33 16.3184C139.98 16.3184 141.367 17.0117 142.041 18.1836C142.353 18.7305 142.49 19.3262 142.431 19.9219C143.388 19.5117 144.306 19.3066 145.175 19.3066C146.953 19.3066 148.525 20.1953 149.502 21.7383C150.195 22.8418 150.107 24.2578 149.355 25.2734C151.386 25.7617 152.998 27.2656 153.476 29.2578C153.515 29.4238 153.642 29.9316 153.496 30.5273C153.418 30.8789 153.271 31.1914 153.056 31.4648C154.14 31.5527 155.263 31.6992 156.425 32.0801C158.808 32.8711 160.693 34.4238 162.275 35.8203C163.886 37.2461 165.322 38.8867 166.523 40.6738C168.066 42.9785 169.316 45.6445 170.244 48.5937C171.045 51.1328 171.611 53.9355 171.933 56.9043C172.207 59.3945 172.314 62.0508 172.246 64.7949C172.197 66.9726 172.031 69.2187 171.777 71.4551C171.591 73.0566 171.357 74.6094 171.084 76.084C171.054 76.2305 171.025 76.3574 170.957 76.5918C170.947 76.6308 170.927 76.6894 170.918 76.748C180.273 88.4277 180.722 98.1836 180.732 98.6035V98.6914V98.789C180.283 112.607 174.365 122.734 163.134 128.867C155.136 133.223 144.658 135.439 132.002 135.439Z" fill="white"/>
<path d="M138.33 18.4863C139.804 18.4863 140.576 19.3555 140.165 20.0781C139.589 21.0742 138.437 23.3887 137.509 25.293C137.343 25.6348 137.617 25.9473 137.919 25.9473C138.027 25.9473 138.144 25.9082 138.242 25.8008C141.474 22.4609 143.691 21.4648 145.185 21.4648C146.513 21.4648 147.275 22.2559 147.675 22.8809C147.929 23.2813 147.851 23.8086 147.49 24.1113C146.376 25.0684 144.716 26.6211 143.33 27.9395C143.046 28.2129 143.281 28.6328 143.603 28.6328C143.671 28.6328 143.73 28.6133 143.798 28.584C144.902 27.9883 146.054 27.4902 147.333 27.3047C147.529 27.2754 147.714 27.2656 147.91 27.2656C149.472 27.2656 150.986 28.1543 151.376 29.7559C151.396 29.8438 151.415 29.9414 151.396 30.0293C151.347 30.2246 151.152 30.332 150.966 30.4199C150.117 30.8203 149.306 31.2891 148.535 31.8164C148.144 32.0801 147.763 32.3535 147.402 32.6563C147.216 32.8125 146.943 33.2617 147.412 33.291C148.867 33.3789 150.322 33.4668 151.777 33.5547C153.144 33.6328 154.443 33.7109 155.751 34.1406C157.705 34.7852 159.326 36.1035 160.849 37.4414C162.324 38.75 163.632 40.2344 164.726 41.875C166.24 44.1406 167.363 46.6406 168.173 49.2383C168.984 51.8066 169.482 54.4629 169.775 57.1387C170.048 59.6582 170.136 62.207 170.078 64.7363C170.029 66.8945 169.873 69.0527 169.619 71.2012C169.443 72.7051 169.218 74.1992 168.945 75.6836C168.906 75.8691 168.476 77.207 168.603 77.3535C178.124 88.8281 178.544 98.3399 178.554 98.6719C178.554 98.6816 178.554 98.6816 178.554 98.6914C177.607 127.959 151.103 133.271 131.992 133.271C121.113 133.271 112.626 131.553 112.626 131.553C76.6889 122.686 65.8296 95.5566 65.4682 94.6191C65.4585 94.5996 65.4585 94.5899 65.4585 94.5703C60.019 65.7617 82.1577 59.8731 84.1596 59.4043C84.2475 59.3848 84.3257 59.3164 84.3549 59.2285C95.6049 31.1816 108.749 25.3809 117.705 25.3809C123.115 25.3809 126.992 27.5 128.007 28.1152C128.056 28.1445 128.105 28.1543 128.154 28.1543C128.261 28.1543 128.359 28.0957 128.408 27.998C132.216 20.4785 136.083 18.4863 138.33 18.4863ZM138.33 14.1504C135.781 14.1504 131.123 15.3418 126.484 22.6172C124.257 21.7969 121.249 21.0449 117.724 21.0449C111.152 21.0449 104.882 23.5449 99.0913 28.4863C92.2944 34.2773 86.2495 43.457 81.0835 55.7813C78.2514 56.7383 73.3003 58.9062 68.9448 63.291C65.4975 66.7578 63.0366 70.957 61.6401 75.7715C59.9702 81.5039 59.8237 88.0957 61.1909 95.3711C61.2397 95.6445 61.3178 95.918 61.4155 96.1719V96.1816V96.1914C61.7378 97.0215 64.7944 104.531 72.4799 113.018C76.9331 117.939 82.0991 122.256 87.8315 125.84C94.9311 130.283 102.919 133.623 111.572 135.752L111.66 135.771L111.748 135.791C112.109 135.869 120.79 137.598 131.972 137.598C144.999 137.598 155.83 135.293 164.14 130.752C169.697 127.715 174.091 123.682 177.206 118.75C180.712 113.203 182.617 106.504 182.861 98.8184V98.7988V98.7793C182.861 98.7012 182.861 98.6426 182.861 98.5645V98.5352V98.5059C182.822 97.4121 182.226 87.8418 173.232 76.2109C173.496 74.7656 173.72 73.2422 173.906 71.6895C174.179 69.3848 174.335 67.0703 174.394 64.8242C174.462 61.9922 174.355 59.2383 174.072 56.6504C173.73 53.5352 173.134 50.5957 172.294 47.9199C171.308 44.7754 169.97 41.9238 168.31 39.4434C167.001 37.4902 165.449 35.7129 163.701 34.1699C161.962 32.6367 159.873 30.918 157.099 30C156.63 29.8438 156.162 29.7168 155.712 29.6191C155.693 29.3262 155.644 29.0234 155.576 28.7207C155.087 26.7188 153.808 25.0684 152.089 24.043C152.246 22.8613 152.001 21.6211 151.328 20.5566C149.951 18.3691 147.705 17.1094 145.165 17.1094C144.775 17.1094 144.374 17.1387 143.974 17.1973C143.955 17.1582 143.925 17.1094 143.906 17.0703C142.851 15.2441 140.761 14.1504 138.33 14.1504Z" fill="#323063"/>
<path d="M97.7344 39.3848C98.5644 40.2051 99.6973 40.6543 100.576 41.4258C102.266 42.9102 103.213 45.2734 103.691 47.4219C104.16 49.4824 103.994 51.7969 105.234 53.6035C106.24 55.0781 107.969 55.8496 109.629 56.5039C113.047 57.8418 116.592 58.9453 120.244 59.3066C128.32 60.1074 137.49 56.25 139.141 47.5C139.326 46.5137 139.394 45.498 139.355 44.4922C139.277 42.5977 138.789 40.7227 137.959 39.0137C137.529 38.1348 137.012 37.3145 136.435 36.5332C135.898 35.8105 135.098 35.2441 134.648 34.4629C134.609 34.3945 134.57 34.3164 134.541 34.248C134.111 33.2813 134.16 31.9531 133.965 30.9473C133.711 29.6191 133.379 28.3105 132.959 27.0215C132.529 25.7227 131.992 24.4434 131.338 23.2324C130.381 24.4922 129.394 26.0645 128.418 27.9883C128.34 28.1348 128.154 28.1934 128.018 28.1055C125.908 26.8262 111.387 19.0527 96.5234 37.3633C96.7676 38.125 97.1582 38.8184 97.7344 39.3848Z" fill="#6A6A9B"/>
<path d="M130.527 137.822C103.291 137.822 84.0819 123.838 75.0585 115.508C71.5038 112.227 68.5741 108.379 66.3377 104.082C59.746 91.3672 58.5253 80.4297 62.7147 71.5625C68.1639 60.0488 80.9081 55.9863 84.3651 55.0781C89.2088 48.252 93.6131 44.9316 97.8221 44.9316C104.726 44.9316 107.715 53.5547 108.652 57.0801L149.228 67.5293C153.789 63.0566 157.685 60.8789 161.113 60.8789C164.043 60.8789 167.939 62.4414 169.902 69.8731C170.654 72.7148 170.879 75.5273 170.947 76.9043C186.094 92.9883 182.422 107.471 176.601 116.836C170.957 125.928 161.982 132.432 151.328 135.146C144.365 136.914 137.363 137.822 130.527 137.822Z" fill="#FFAF8C"/>
<path d="M97.8318 47.0996C104.472 47.0996 106.855 58.8574 106.855 58.8574L149.892 69.9414C154.795 64.9023 158.428 63.0469 161.123 63.0469C168.711 63.0469 168.818 77.8027 168.818 77.8027C183.31 92.7637 180.654 106.221 174.775 115.684C169.385 124.375 160.722 130.508 150.81 133.037C143.623 134.863 136.855 135.645 130.527 135.645C103.828 135.645 85.0095 121.738 76.5232 113.906C73.1638 110.801 70.3611 107.139 68.2615 103.076C48.447 64.8633 85.6736 56.9922 85.6736 56.9922C90.7713 49.6191 94.7556 47.0996 97.8318 47.0996ZM97.8318 42.7539C93.0174 42.7539 88.1638 46.1719 83.0564 53.1934C78.4959 54.5215 66.24 59.0527 60.7615 70.6348C56.2595 80.1367 57.49 91.7285 64.4138 105.078C66.7576 109.6 69.8435 113.652 73.5838 117.1C77.9295 121.113 85.1365 126.895 94.7849 131.611C106.133 137.168 118.164 139.99 130.527 139.99C137.549 139.99 144.736 139.062 151.885 137.246C157.383 135.85 162.47 133.477 167.021 130.195C171.64 126.865 175.488 122.754 178.457 117.979C182.402 111.631 184.179 105.088 183.76 98.5254C183.262 90.7617 179.668 83.1934 173.066 75.9961C172.949 74.375 172.676 71.8555 172.002 69.3164C169.56 60.0879 164.131 58.7109 161.113 58.7109C157.334 58.7109 153.222 60.8106 148.594 65.127L110.371 55.2832C109.99 54.0723 109.453 52.5879 108.72 51.084C105.4 44.1992 100.967 42.7539 97.8318 42.7539Z" fill="#323063"/>
<path d="M120.01 99.6973C120.01 99.6973 115.674 117.91 128.975 119.287C128.975 119.287 142.881 119.99 137.041 98.6523" fill="#FF0000"/>
<path d="M129.111 121.455C128.975 121.455 128.896 121.455 128.877 121.455L128.76 121.445C124.932 121.045 121.973 119.414 119.971 116.592C115.371 110.107 117.793 99.6289 117.9 99.1894L122.119 100.195C122.1 100.283 120.049 109.219 123.506 114.092C124.756 115.85 126.592 116.846 129.121 117.119C129.502 117.119 132.49 117.07 134.443 114.6C136.728 111.709 136.904 106.387 134.941 99.2187L139.131 98.0761C141.523 106.807 141.074 113.291 137.793 117.363C134.707 121.211 130.195 121.455 129.111 121.455Z" fill="#323063"/>
<path d="M95.8787 103.77C95.2342 103.77 94.5995 103.486 94.1698 102.939C91.787 99.9121 90.869 96.6992 91.4452 93.4082C92.5682 86.9238 99.2088 82.6758 99.492 82.5C100.508 81.8652 101.846 82.168 102.48 83.1836C103.115 84.1992 102.812 85.5371 101.806 86.1719C101.758 86.2012 96.5037 89.5898 95.7225 94.1699C95.3709 96.2207 95.9862 98.2129 97.5877 100.264C98.3299 101.201 98.1639 102.568 97.2264 103.311C96.826 103.613 96.3475 103.77 95.8787 103.77Z" fill="#323063"/>
<path d="M145.752 108.135C145.664 108.135 145.576 108.125 145.478 108.115C144.287 107.969 143.447 106.885 143.594 105.693C144.853 95.6445 137.598 91.4258 137.285 91.25C136.25 90.6641 135.869 89.3457 136.455 88.3008C137.041 87.2559 138.349 86.875 139.394 87.4512C139.814 87.6758 149.541 93.1933 147.91 106.23C147.763 107.324 146.826 108.135 145.752 108.135Z" fill="#323063"/>
<path d="M127.959 102.441C122.714 102.441 117.05 101.641 111.074 100.039C101.005 97.3438 93.6421 93.3789 93.3394 93.2031C92.2847 92.627 91.8941 91.3184 92.4703 90.2637C93.0464 89.209 94.355 88.8184 95.4097 89.3945C95.6929 89.5508 123.974 104.639 143.613 94.7559C144.687 94.2188 145.986 94.6485 146.523 95.7227C147.06 96.7969 146.63 98.0957 145.556 98.6328C140.517 101.162 134.57 102.441 127.959 102.441Z" fill="#323063"/>
<path d="M100.176 54.502C100.176 54.502 100.166 58.5059 92.4316 60.0781C84.6973 61.6504 81.3672 69.4922 87.1094 71.6601C92.8516 73.8183 103.35 67.9785 100.176 54.502Z" fill="#323063"/>
<path d="M157.578 69.2871C157.578 69.2871 155.644 72.793 161.66 77.9102C167.675 83.0273 166.806 91.5039 160.732 90.6152C154.658 89.7266 148.291 79.5508 157.578 69.2871Z" fill="#323063"/>
<path d="M123.171 50.2189C124.021 46.9179 123.059 43.8167 121.022 43.2922C118.985 42.7676 116.644 45.0182 115.794 48.3191C114.944 51.6201 115.906 54.7213 117.943 55.2459C119.98 55.7704 122.321 53.5198 123.171 50.2189Z" fill="#323063"/>
<path d="M147.874 56.5803C148.724 53.2793 147.762 50.1781 145.725 49.6535C143.688 49.1289 141.348 51.3796 140.498 54.6805C139.648 57.9814 140.61 61.0826 142.647 61.6072C144.684 62.1318 147.024 59.8812 147.874 56.5803Z" fill="#323063"/>
<path d="M72.7637 105.264C69.5801 102.324 66.8359 98.9355 64.6094 95.2246C65.4785 97.6758 66.6113 100.264 68.0371 103.018C70.1465 107.08 72.9395 110.752 76.2988 113.848C86.7871 123.535 113.106 142.519 150.586 132.978C157.207 131.289 163.272 127.988 168.184 123.379C165 125.039 161.621 126.338 158.096 127.236C115.039 138.203 84.8145 116.396 72.7637 105.264Z" fill="#E67B57"/>
<path d="M129.238 109.561C128.066 109.561 127.099 108.623 127.07 107.441L126.924 101.074C126.894 99.873 127.841 98.8867 129.043 98.8574C130.234 98.8281 131.23 99.7754 131.259 100.977L131.406 107.344C131.435 108.545 130.488 109.531 129.287 109.561C129.277 109.561 129.258 109.561 129.238 109.561Z" fill="#323063"/>
</svg>
