<svg width="78" height="59" viewBox="0 0 78 59" fill="none" xmlns="http://www.w3.org/2000/svg">
<g clip-path="url(#clip0)">
<path d="M75.2939 20.1595L73.5386 20.4119L53.6089 23.6576C53.5358 23.6576 53.4627 23.7658 53.4992 23.838C53.6455 24.1265 53.9015 24.8117 53.9015 25.7493C53.9015 29.1393 51.0492 31.8801 47.5386 31.8801C44.0646 31.8801 41.2489 29.1754 41.1757 25.8575C41.1026 25.7854 41.1026 25.7854 41.0295 25.7133L3.36421 31.9883C2.70598 32.2047 2.48657 32.3129 2.48657 33.1784V39.3092C2.48657 39.3814 2.55971 39.4535 2.63284 39.4535C5.04635 39.5617 7.02103 41.5812 7.02103 44.0696C7.02103 46.558 5.08292 48.6136 2.63284 48.6858C2.55971 48.6858 2.48657 48.7579 2.48657 48.83V56.3673C2.48657 56.4394 2.55971 56.5116 2.63284 56.5116C6.43594 55.8624 34.8129 51.1381 55.8762 47.6399C56.2053 47.5678 56.5344 47.5317 56.8635 47.4596C56.9366 47.4596 56.9732 47.3875 56.9732 47.3153C56.8635 46.8826 56.8269 46.4138 56.8269 45.9449C56.8269 42.4107 59.8255 39.5256 63.5555 39.5256C66.9563 39.5256 69.7721 41.9419 70.2109 45.1155C70.2109 45.1876 70.284 45.2597 70.3572 45.2237C72.5513 44.863 74.2334 44.5745 75.2573 44.3942C75.3305 44.3942 75.367 44.3221 75.367 44.2499C75.367 43.9254 75.367 43.3844 75.367 42.6632C75.4036 38.0831 75.5133 25.9297 75.5133 21.0611C75.5133 20.7726 75.4767 20.4841 75.4036 20.1955C75.4402 20.1955 75.367 20.1595 75.2939 20.1595Z" fill="#FFC964"/>
<path d="M5.77775 29.0312L41.6877 23.1528C41.7243 23.1528 41.7609 23.1167 41.7974 23.0807C42.8579 21.1332 45.0154 20.6644 46.6244 20.448C46.917 20.412 47.2461 20.3759 47.5386 20.3759C48.9648 20.3759 50.3544 20.7726 51.4514 21.4939C51.488 21.5299 51.5246 21.5299 51.5611 21.5299L73.1364 17.9957L74.014 17.8515C74.0506 17.7072 74.0506 17.7433 74.0872 17.6351C71.9296 15.3991 69.6624 13.4878 67.3952 11.8288C67.3586 11.7928 67.2855 11.7928 67.2489 11.8288C66.225 12.4419 64.9451 12.8026 63.519 12.8026C60.1547 12.8026 57.5218 10.783 57.5218 8.22249C57.5218 7.64548 57.668 7.10452 57.8875 6.59963C57.924 6.52751 57.8875 6.45538 57.8143 6.41931C49.9887 3.10147 42.6751 2.41626 37.8846 2.41626C37.4458 2.41626 37.0801 2.52445 36.8607 2.70477C36.5316 2.99328 23.0379 14.2451 18.796 17.8515C18.6132 17.9957 18.7595 18.14 18.8326 18.2121C19.6371 18.9334 20.0759 19.835 20.0759 20.8087C20.0759 22.3594 18.9057 23.7659 16.9676 24.5232C16.0168 24.8839 14.8832 25.1002 13.7862 25.1002C12.8354 25.1002 11.8481 24.956 11.007 24.6675C10.9704 24.6675 10.751 24.6314 10.6779 24.7035C10.5682 24.8117 10.2756 25.0281 9.83682 25.3887C8.99575 26.074 7.02107 27.6608 5.63147 28.8148C5.55834 28.8869 5.63148 29.0672 5.77775 29.0312ZM37.0436 9.55684C40.4078 9.55684 43.0408 11.5764 43.0408 14.1369C43.0408 16.6974 40.4078 18.717 37.0436 18.717C33.6793 18.717 31.0464 16.6974 31.0464 14.1369C31.0464 11.5764 33.6793 9.55684 37.0436 9.55684Z" fill="#FFE183"/>
<path d="M25.0126 33.3227C22.6722 33.3227 20.7706 35.1259 20.7706 37.2897C20.7706 39.4896 22.6722 41.2567 25.0126 41.2567C27.3529 41.2567 29.2545 39.4535 29.2545 37.2897C29.2545 35.1259 27.3529 33.3227 25.0126 33.3227Z" fill="#F3A334"/>
<path d="M22.5259 37.3258C22.5259 35.4144 23.9886 33.8277 25.8902 33.431C25.5976 33.3588 25.3051 33.3588 25.0125 33.3588C22.6722 33.3588 20.7706 35.162 20.7706 37.3258C20.7706 39.5257 22.6722 41.2928 25.0125 41.2928C25.3051 41.2928 25.5976 41.2567 25.8902 41.2207C23.9521 40.824 22.5259 39.2372 22.5259 37.3258Z" fill="#E87E04"/>
<path d="M47.5388 22.8643C47.3194 22.8643 47.1366 22.8643 46.9172 22.9003C44.5768 23.1888 44.0283 23.9101 43.8089 24.6314C43.6992 24.992 43.6626 25.1002 43.6626 25.7854C43.6626 27.841 45.4179 29.5 47.5388 29.5C49.6963 29.5 51.415 27.841 51.415 25.7854C51.415 24.8117 50.8665 24.1625 50.3911 23.8019C49.6963 23.1888 48.6359 22.8643 47.5388 22.8643Z" fill="#FFC964"/>
<path d="M45.5641 25.497C45.5641 24.5233 45.9298 23.6217 46.5515 22.9365C44.5402 23.261 44.0283 23.9102 43.8089 24.5954C43.6992 24.956 43.6626 25.0642 43.6626 25.7494C43.6626 27.805 45.4179 29.464 47.5388 29.464C47.9411 29.464 48.3068 29.3918 48.6359 29.3197C46.8806 28.8509 45.5641 27.3001 45.5641 25.497Z" fill="#F3A334"/>
<path d="M37.0435 16.2647C38.9084 16.2647 40.5906 15.2549 40.5906 14.137C40.5906 13.1272 39.1278 12.0092 37.0435 12.0092C34.9591 12.0092 33.4963 13.1272 33.4963 14.137C33.4963 15.2549 35.1419 16.2647 37.0435 16.2647Z" fill="#FFC964"/>
<path d="M75.9887 16.0844C73.8312 13.8484 71.5274 11.8289 69.0408 10.0257C68.6751 9.77323 68.346 9.52078 67.9803 9.26834C67.5049 8.94377 66.8832 9.01589 66.4444 9.41259C66.0788 9.73716 65.5302 10.0257 64.9451 10.206C64.5063 10.3142 64.0309 10.3863 63.519 10.3863C61.654 10.3863 59.9719 9.37653 59.9719 8.25856C59.9719 8.00611 60.045 7.78973 60.1913 7.53729C60.4107 7.21271 60.7398 6.92421 61.1786 6.67176C61.7271 6.38325 61.6906 5.58985 61.1055 5.30134C60.6667 5.08496 60.1913 4.86858 59.7159 4.6522C57.5949 3.71455 55.4008 2.88509 53.097 2.19988C48.1969 0.757335 43.0408 0 37.9212 0C36.8973 0 35.9465 0.288509 35.2883 0.865526C34.9958 1.11797 19.3811 14.173 16.3094 16.7335C16.0169 16.9859 15.7609 17.2745 15.6146 17.5269C15.2124 18.2482 15.5781 19.0776 16.3094 19.4383C17.1139 19.7989 17.5162 20.3759 17.5162 20.8447C17.5162 21.3496 17.0408 21.8545 16.09 22.2152C15.3952 22.4676 14.6273 22.6119 13.8228 22.6119C13.128 22.6119 12.4332 22.5037 11.8115 22.3234C11.8115 22.3234 11.263 22.107 10.8242 22.107C10.2391 22.107 9.65401 22.3594 9.10548 22.7922C8.99578 22.8643 8.70323 23.1167 8.30098 23.4413C5.11955 26.0379 2.88889 27.8771 2.34037 28.5263C1.64557 29.3197 1.24332 29.9688 1.09705 30.1852C0.804501 30.5458 0 31.8081 0 33.8276V40.1027C0 41.3649 0.841069 41.9419 1.71871 41.9419C1.90155 41.9419 2.04782 41.9059 2.12096 41.9059H2.15752C2.23066 41.9059 2.34037 41.9059 2.4135 41.9059C3.54712 41.9059 4.49789 42.8796 4.49789 44.1057C4.49789 45.3319 3.54712 46.3056 2.4135 46.3056C2.34037 46.3056 2.26723 46.3056 2.19409 46.3056C2.12096 46.3056 2.04782 46.3056 1.93812 46.3056C0.987342 46.3056 0 46.9908 0 48.1809V56.9083C0 58.1345 0.950773 59.1082 2.19409 59.1082C2.34037 59.1082 2.48664 59.1082 2.63291 59.0721C3.54712 58.9279 35.2883 53.6265 56.2785 50.1644C56.9001 50.0562 57.5218 49.948 58.1069 49.8759H58.18C59.3136 49.6956 59.9353 48.5055 59.533 47.4597C59.4965 47.3875 59.4599 47.2793 59.4233 47.2072C59.3136 46.8466 59.2405 46.4859 59.2405 46.1253C59.2405 43.9254 61.142 42.1583 63.4824 42.1583C65.7131 42.1583 67.5415 43.7812 67.7243 45.8368C67.7243 45.945 67.7243 46.0171 67.7243 46.1253V46.1614C67.7243 47.2793 68.7482 48.1449 69.8453 47.9285H69.9184C72.7342 47.4597 74.8551 47.099 75.9156 46.9187C76.7567 46.7745 77.7806 46.3056 77.7806 44.7549C77.7806 44.6828 77.7806 43.9976 77.7806 42.8796C77.8171 38.2995 77.9268 26.11 77.9268 21.2414C77.9268 19.9432 77.4515 18.6809 77.3418 18.4285C77.3418 18.0678 76.9029 17.022 75.9887 16.0844ZM5.66807 28.8148C7.05766 27.6247 9.03235 26.0379 9.87342 25.3888C10.3122 25.0281 10.6048 24.7757 10.7145 24.7035C10.7876 24.6675 11.007 24.6675 11.0436 24.6675C11.8847 24.956 12.872 25.1002 13.8228 25.1002C14.9564 25.1002 16.0534 24.8839 17.0042 24.5232C18.9423 23.7298 20.1125 22.3594 20.1125 20.7726C20.1125 19.7989 19.6737 18.9334 18.8692 18.176C18.7961 18.1039 18.6498 17.9597 18.8326 17.8154C23.1111 14.2451 36.5682 2.95721 36.8973 2.6687C37.1167 2.48839 37.4824 2.3802 37.9212 2.3802C42.6751 2.3802 49.9887 3.0654 57.8509 6.38325C57.924 6.41932 57.9606 6.49144 57.924 6.56357C57.6681 7.06846 57.5584 7.60941 57.5584 8.18643C57.5584 10.7469 60.1913 12.7665 63.5555 12.7665C64.9817 12.7665 66.2616 12.4059 67.2855 11.7928C67.3221 11.7567 67.3952 11.7567 67.4318 11.7928C69.699 13.4517 71.9297 15.3631 74.1238 17.599C74.0872 17.7433 74.0872 17.7072 74.0506 17.8154L73.1364 18.0318L51.5612 21.566C51.5246 21.566 51.488 21.566 51.4515 21.53C50.3544 20.8087 48.9648 20.412 47.5387 20.412C47.2096 20.412 46.917 20.448 46.6245 20.4841C45.0155 20.7005 42.8214 21.1693 41.7975 23.1167C41.7609 23.1528 41.7609 23.1889 41.6878 23.1889L5.77778 29.0312C5.6315 29.0672 5.55837 28.8869 5.66807 28.8148ZM50.4276 23.802C50.9029 24.1626 51.4515 24.8117 51.4515 25.7855C51.4515 27.8411 49.6962 29.5 47.5752 29.5C45.4177 29.5 43.699 27.8411 43.699 25.7855C43.699 25.1002 43.7356 24.9921 43.8453 24.6314C44.0647 23.9101 44.6132 23.1889 46.9536 22.9004C47.173 22.8643 47.3558 22.8643 47.5752 22.8643C48.6357 22.8643 49.6962 23.1889 50.4276 23.802ZM75.4036 42.6993C75.4036 43.4205 75.4036 43.9615 75.4036 44.2861C75.4036 44.3582 75.3671 44.3943 75.2939 44.4303C74.27 44.6106 72.5879 44.8991 70.3938 45.2598C70.3207 45.2598 70.2475 45.2237 70.2475 45.1516C69.8087 42.0141 66.993 39.5617 63.5921 39.5617C59.8987 39.5617 56.8636 42.4468 56.8636 45.9811C56.8636 46.4499 56.9367 46.8826 57.0098 47.3515C57.0098 47.4236 56.9733 47.4957 56.9001 47.4957C56.571 47.5678 56.2419 47.6039 55.9128 47.676C34.8861 51.1742 6.47257 55.8985 2.66948 56.5477C2.59634 56.5477 2.52321 56.5116 2.52321 56.4034V48.8661C2.52321 48.794 2.59634 48.7219 2.66948 48.7219C5.08298 48.6137 7.05766 46.5941 7.05766 44.1057C7.05766 41.6174 5.11955 39.5617 2.66948 39.4896C2.59634 39.4896 2.52321 39.4175 2.52321 39.3454V33.1785C2.52321 32.313 2.74262 32.2048 3.40084 31.9884L41.0661 25.7494C41.1392 25.8215 41.1392 25.8215 41.2124 25.8936C41.2855 29.2115 44.1013 31.9163 47.5752 31.9163C51.0858 31.9163 53.9381 29.1754 53.9381 25.7855C53.9381 24.8478 53.6821 24.1626 53.5359 23.8741C53.4993 23.802 53.5359 23.6938 53.6456 23.6938L73.5752 20.448L75.3305 20.1956C75.4036 20.1956 75.4768 20.2317 75.4768 20.3038C75.5499 20.5923 75.5865 20.8808 75.5865 21.1693C75.5499 25.9658 75.4402 38.1192 75.4036 42.6993Z" fill="#323063"/>
<path d="M37.0437 18.6809C40.408 18.6809 43.0409 16.6613 43.0409 14.1008C43.0409 11.5403 40.408 9.52075 37.0437 9.52075C33.6794 9.52075 31.0465 11.5403 31.0465 14.1008C31.0465 16.6613 33.6794 18.6809 37.0437 18.6809ZM37.0437 11.9731C39.1281 11.9731 40.5908 13.091 40.5908 14.1008C40.5908 15.2188 38.9453 16.2286 37.0437 16.2286C35.1787 16.2286 33.4966 15.2188 33.4966 14.1008C33.4966 13.1271 34.9593 11.9731 37.0437 11.9731Z" fill="#323063"/>
<path d="M25.0127 30.9065C21.3193 30.9065 18.2842 33.7916 18.2842 37.3258C18.2842 40.86 21.2828 43.7451 25.0127 43.7451C28.7061 43.7451 31.7413 40.86 31.7413 37.3258C31.7413 33.7916 28.7061 30.9065 25.0127 30.9065ZM25.0127 41.2928C22.6724 41.2928 20.7708 39.4896 20.7708 37.3258C20.7708 35.1259 22.6724 33.3588 25.0127 33.3588C27.3531 33.3588 29.2546 35.162 29.2546 37.3258C29.2546 39.5257 27.3531 41.2928 25.0127 41.2928Z" fill="#323063"/>
<path d="M34.8494 13.596C34.8494 13.055 35.2516 12.5141 35.9464 12.0813C34.4837 12.3698 33.4963 13.2714 33.4963 14.1009C33.4963 15.2188 35.1419 16.2286 37.0435 16.2286C37.9577 16.2286 38.8353 15.9762 39.4935 15.6155C39.1278 15.6877 38.7622 15.7237 38.3965 15.7237C36.4949 15.7237 34.8494 14.75 34.8494 13.596Z" fill="#F3A334"/>
<path d="M2.59647 48.758C2.52333 48.758 2.4502 48.8301 2.4502 48.9023V56.4395C2.4502 56.5117 2.52333 56.5838 2.59647 56.5838C3.14499 56.5117 4.1689 56.3314 5.55849 56.0789V47.4597C4.82713 48.181 3.76665 48.6859 2.59647 48.758Z" fill="#F3A334"/>
<path d="M3.36421 32.0245C2.70598 32.2408 2.48657 32.349 2.48657 33.2145V39.3454C2.48657 39.4175 2.55971 39.4896 2.63284 39.4896C3.80303 39.5257 4.8635 40.0306 5.63144 40.824V31.6638L3.36421 32.0245Z" fill="#F3A334"/>
<path d="M37.9214 2.45233C37.4826 2.45233 37.1169 2.56052 36.8975 2.74084C36.5684 3.02935 23.0747 14.2812 18.8328 17.8875C18.65 18.0318 18.7962 18.176 18.8694 18.2482C19.3448 18.6809 19.7104 19.1498 19.8933 19.6907L40.3715 2.52446C39.4938 2.4884 38.6893 2.45233 37.9214 2.45233Z" fill="#F3A334"/>
<path d="M11.0436 24.6675C11.007 24.6675 10.7876 24.6315 10.7145 24.7036C10.6048 24.8118 10.3122 25.0282 9.8734 25.3888C9.03233 26.074 7.05765 27.6608 5.66806 28.8148C5.55835 28.887 5.63149 29.0673 5.77776 29.0673L9.39801 28.4903L13.4571 25.1003C12.616 25.0642 11.7749 24.92 11.0436 24.6675Z" fill="#F3A334"/>
</g>
<defs>
<clipPath id="clip0">
<rect width="78" height="59" fill="white"/>
</clipPath>
</defs>
</svg>
