<svg width="73" height="73" viewBox="0 0 73 73" fill="none" xmlns="http://www.w3.org/2000/svg">
<path d="M36.0625 72.3391C55.9447 72.3391 72.0625 56.2214 72.0625 36.3391C72.0625 16.4569 55.9447 0.339111 36.0625 0.339111C16.1802 0.339111 0.0625 16.4569 0.0625 36.3391C0.0625 56.2214 16.1802 72.3391 36.0625 72.3391Z" fill="#F0B90B"/>
<path d="M36.063 0.339111C35.1048 0.339111 34.1467 0.339111 33.1885 0.475993C51.6676 1.9817 66.314 17.4494 66.314 36.3391C66.314 55.2288 51.8044 70.6965 33.1885 72.2022C34.1467 72.3391 35.1048 72.3391 36.063 72.3391C55.9109 72.3391 72.063 56.187 72.063 36.3391C72.063 16.4912 55.9109 0.339111 36.063 0.339111Z" fill="#ECA907"/>
<path fill-rule="evenodd" clip-rule="evenodd" d="M20.7413 27.1951L36.0773 11.8591L42.1922 17.9741L26.8562 33.3101L20.7413 27.1951ZM20.7524 45.5213L45.2609 21.0128L51.3758 27.1278L26.8674 51.6362L20.7524 45.5213ZM54.4272 30.1964L29.9188 54.7049L36.0334 60.8191L60.5425 36.311L54.4272 30.1964ZM11.5825 36.3521L17.6975 30.2371L23.8124 36.3521L17.6975 42.467L11.5825 36.3521Z" fill="white"/>
</svg>
